<svg width="170" height="51" viewBox="0 0 170 51" fill="none" xmlns="http://www.w3.org/2000/svg">
<g filter="url(#filter0_d)">
<rect x="4" width="154" height="43" rx="10" fill="white"/>
</g>
<path d="M43 23H37V29H35V23H29V21H35V15H37V21H43V23Z" fill="black"/>
<path d="M69.35 17.155V28H68.315C68.155 28 68.02 27.975 67.91 27.925C67.805 27.87 67.7025 27.78 67.6025 27.655L61.94 20.425C61.97 20.755 61.985 21.06 61.985 21.34V28H60.2075V17.155H61.265C61.35 17.155 61.4225 17.16 61.4825 17.17C61.5475 17.175 61.6025 17.19 61.6475 17.215C61.6975 17.235 61.745 17.2675 61.79 17.3125C61.835 17.3525 61.885 17.4075 61.94 17.4775L67.625 24.7375C67.61 24.5625 67.5975 24.39 67.5875 24.22C67.5775 24.05 67.5725 23.8925 67.5725 23.7475V17.155H69.35ZM76.1957 23.2675C76.1957 23.0275 76.1607 22.8025 76.0907 22.5925C76.0257 22.3775 75.9257 22.19 75.7907 22.03C75.6557 21.87 75.4832 21.745 75.2732 21.655C75.0682 21.56 74.8282 21.5125 74.5532 21.5125C74.0182 21.5125 73.5957 21.665 73.2857 21.97C72.9807 22.275 72.7857 22.7075 72.7007 23.2675H76.1957ZM72.6632 24.385C72.6932 24.78 72.7632 25.1225 72.8732 25.4125C72.9832 25.6975 73.1282 25.935 73.3082 26.125C73.4882 26.31 73.7007 26.45 73.9457 26.545C74.1957 26.635 74.4707 26.68 74.7707 26.68C75.0707 26.68 75.3282 26.645 75.5432 26.575C75.7632 26.505 75.9532 26.4275 76.1132 26.3425C76.2782 26.2575 76.4207 26.18 76.5407 26.11C76.6657 26.04 76.7857 26.005 76.9007 26.005C77.0557 26.005 77.1707 26.0625 77.2457 26.1775L77.7782 26.8525C77.5732 27.0925 77.3432 27.295 77.0882 27.46C76.8332 27.62 76.5657 27.75 76.2857 27.85C76.0107 27.945 75.7282 28.0125 75.4382 28.0525C75.1532 28.0925 74.8757 28.1125 74.6057 28.1125C74.0707 28.1125 73.5732 28.025 73.1132 27.85C72.6532 27.67 72.2532 27.4075 71.9132 27.0625C71.5732 26.7125 71.3057 26.2825 71.1107 25.7725C70.9157 25.2575 70.8182 24.6625 70.8182 23.9875C70.8182 23.4625 70.9032 22.97 71.0732 22.51C71.2432 22.045 71.4857 21.6425 71.8007 21.3025C72.1207 20.9575 72.5082 20.685 72.9632 20.485C73.4232 20.285 73.9407 20.185 74.5157 20.185C75.0007 20.185 75.4482 20.2625 75.8582 20.4175C76.2682 20.5725 76.6207 20.8 76.9157 21.1C77.2107 21.395 77.4407 21.76 77.6057 22.195C77.7757 22.625 77.8607 23.1175 77.8607 23.6725C77.8607 23.9525 77.8307 24.1425 77.7707 24.2425C77.7107 24.3375 77.5957 24.385 77.4257 24.385H72.6632ZM90.1359 20.305L87.6909 28H86.2059C86.0359 28 85.9184 27.89 85.8534 27.67L84.4734 23.2225C84.4284 23.0725 84.3859 22.925 84.3459 22.78C84.3109 22.63 84.2809 22.48 84.2559 22.33C84.2259 22.48 84.1909 22.6325 84.1509 22.7875C84.1159 22.9375 84.0759 23.0875 84.0309 23.2375L82.6284 27.67C82.5684 27.89 82.4359 28 82.2309 28H80.8059L78.3684 20.305H79.8459C79.9809 20.305 80.0959 20.3375 80.1909 20.4025C80.2859 20.4675 80.3484 20.55 80.3784 20.65L81.4809 24.76C81.5359 24.985 81.5834 25.205 81.6234 25.42C81.6684 25.635 81.7059 25.85 81.7359 26.065C81.7909 25.85 81.8484 25.635 81.9084 25.42C81.9734 25.205 82.0409 24.985 82.1109 24.76L83.3859 20.635C83.4159 20.535 83.4734 20.4525 83.5584 20.3875C83.6484 20.3225 83.7559 20.29 83.8809 20.29H84.6984C84.8284 20.29 84.9384 20.3225 85.0284 20.3875C85.1234 20.4525 85.1859 20.535 85.2159 20.635L86.4534 24.76C86.5184 24.985 86.5784 25.2075 86.6334 25.4275C86.6934 25.6425 86.7509 25.8575 86.8059 26.0725C86.8709 25.6475 86.9634 25.21 87.0834 24.76L88.2159 20.65C88.2509 20.55 88.3134 20.4675 88.4034 20.4025C88.4934 20.3375 88.6009 20.305 88.7259 20.305H90.1359ZM102.269 25.4425C102.379 25.4425 102.477 25.485 102.562 25.57L103.357 26.4325C102.917 26.9775 102.374 27.395 101.729 27.685C101.089 27.975 100.319 28.12 99.4193 28.12C98.6143 28.12 97.8893 27.9825 97.2443 27.7075C96.6043 27.4325 96.0568 27.05 95.6018 26.56C95.1468 26.07 94.7968 25.485 94.5518 24.805C94.3118 24.125 94.1918 23.3825 94.1918 22.5775C94.1918 21.7625 94.3218 21.0175 94.5818 20.3425C94.8418 19.6625 95.2068 19.0775 95.6768 18.5875C96.1518 18.0975 96.7168 17.7175 97.3718 17.4475C98.0268 17.1725 98.7518 17.035 99.5468 17.035C100.337 17.035 101.037 17.165 101.647 17.425C102.262 17.685 102.784 18.025 103.214 18.445L102.539 19.3825C102.499 19.4425 102.447 19.495 102.382 19.54C102.322 19.585 102.237 19.6075 102.127 19.6075C102.052 19.6075 101.974 19.5875 101.894 19.5475C101.814 19.5025 101.727 19.45 101.632 19.39C101.537 19.325 101.427 19.255 101.302 19.18C101.177 19.105 101.032 19.0375 100.867 18.9775C100.702 18.9125 100.509 18.86 100.289 18.82C100.074 18.775 99.8243 18.7525 99.5393 18.7525C99.0543 18.7525 98.6093 18.84 98.2043 19.015C97.8043 19.185 97.4593 19.435 97.1693 19.765C96.8793 20.09 96.6543 20.49 96.4943 20.965C96.3343 21.435 96.2543 21.9725 96.2543 22.5775C96.2543 23.1875 96.3393 23.73 96.5093 24.205C96.6843 24.68 96.9193 25.08 97.2143 25.405C97.5093 25.73 97.8568 25.98 98.2568 26.155C98.6568 26.325 99.0868 26.41 99.5468 26.41C99.8218 26.41 100.069 26.395 100.289 26.365C100.514 26.335 100.719 26.2875 100.904 26.2225C101.094 26.1575 101.272 26.075 101.437 25.975C101.607 25.87 101.774 25.7425 101.939 25.5925C101.989 25.5475 102.042 25.5125 102.097 25.4875C102.152 25.4575 102.209 25.4425 102.269 25.4425ZM108.511 24.715C107.976 24.74 107.526 24.7875 107.161 24.8575C106.796 24.9225 106.504 25.0075 106.284 25.1125C106.064 25.2175 105.906 25.34 105.811 25.48C105.716 25.62 105.669 25.7725 105.669 25.9375C105.669 26.2625 105.764 26.495 105.954 26.635C106.149 26.775 106.401 26.845 106.711 26.845C107.091 26.845 107.419 26.7775 107.694 26.6425C107.974 26.5025 108.246 26.2925 108.511 26.0125V24.715ZM104.266 21.3775C105.151 20.5675 106.216 20.1625 107.461 20.1625C107.911 20.1625 108.314 20.2375 108.669 20.3875C109.024 20.5325 109.324 20.7375 109.569 21.0025C109.814 21.2625 109.999 21.575 110.124 21.94C110.254 22.305 110.319 22.705 110.319 23.14V28H109.479C109.304 28 109.169 27.975 109.074 27.925C108.979 27.87 108.904 27.7625 108.849 27.6025L108.684 27.0475C108.489 27.2225 108.299 27.3775 108.114 27.5125C107.929 27.6425 107.736 27.7525 107.536 27.8425C107.336 27.9325 107.121 28 106.891 28.045C106.666 28.095 106.416 28.12 106.141 28.12C105.816 28.12 105.516 28.0775 105.241 27.9925C104.966 27.9025 104.729 27.77 104.529 27.595C104.329 27.42 104.174 27.2025 104.064 26.9425C103.954 26.6825 103.899 26.38 103.899 26.035C103.899 25.84 103.931 25.6475 103.996 25.4575C104.061 25.2625 104.166 25.0775 104.311 24.9025C104.461 24.7275 104.654 24.5625 104.889 24.4075C105.124 24.2525 105.411 24.1175 105.751 24.0025C106.096 23.8875 106.496 23.795 106.951 23.725C107.406 23.65 107.926 23.605 108.511 23.59V23.14C108.511 22.625 108.401 22.245 108.181 22C107.961 21.75 107.644 21.625 107.229 21.625C106.929 21.625 106.679 21.66 106.479 21.73C106.284 21.8 106.111 21.88 105.961 21.97C105.811 22.055 105.674 22.1325 105.549 22.2025C105.429 22.2725 105.294 22.3075 105.144 22.3075C105.014 22.3075 104.904 22.275 104.814 22.21C104.724 22.14 104.651 22.06 104.596 21.97L104.266 21.3775ZM113.811 21.64C114.051 21.18 114.336 20.82 114.666 20.56C114.996 20.295 115.386 20.1625 115.836 20.1625C116.191 20.1625 116.476 20.24 116.691 20.395L116.571 21.7825C116.546 21.8725 116.508 21.9375 116.458 21.9775C116.413 22.0125 116.351 22.03 116.271 22.03C116.196 22.03 116.083 22.0175 115.933 21.9925C115.788 21.9675 115.646 21.955 115.506 21.955C115.301 21.955 115.118 21.985 114.958 22.045C114.798 22.105 114.653 22.1925 114.523 22.3075C114.398 22.4175 114.286 22.5525 114.186 22.7125C114.091 22.8725 114.001 23.055 113.916 23.26V28H112.063V20.305H113.151C113.341 20.305 113.473 20.34 113.548 20.41C113.623 20.475 113.673 20.595 113.698 20.77L113.811 21.64Z" fill="#575758"/>
<defs>
<filter id="filter0_d" x="0" y="0" width="162" height="51" filterUnits="userSpaceOnUse" color-interpolation-filters="sRGB">
<feFlood flood-opacity="0" result="BackgroundImageFix"/>
<feColorMatrix in="SourceAlpha" type="matrix" values="0 0 0 0 0 0 0 0 0 0 0 0 0 0 0 0 0 0 127 0"/>
<feOffset dy="4"/>
<feGaussianBlur stdDeviation="2"/>
<feColorMatrix type="matrix" values="0 0 0 0 0 0 0 0 0 0 0 0 0 0 0 0 0 0 0.25 0"/>
<feBlend mode="normal" in2="BackgroundImageFix" result="effect1_dropShadow"/>
<feBlend mode="normal" in="SourceGraphic" in2="effect1_dropShadow" result="shape"/>
</filter>
</defs>
</svg>
