<svg width="170" height="51" viewBox="0 0 170 51" fill="none" xmlns="http://www.w3.org/2000/svg">
<g filter="url(#filter0_d)">
<rect x="4" width="154" height="43" rx="10" fill="white"/>
</g>
<path d="M43 23H37V29H35V23H29V21H35V15H37V21H43V23Z" fill="black"/>
<path d="M69.35 17.155V28H68.315C68.155 28 68.02 27.975 67.91 27.925C67.805 27.87 67.7025 27.78 67.6025 27.655L61.94 20.425C61.97 20.755 61.985 21.06 61.985 21.34V28H60.2075V17.155H61.265C61.35 17.155 61.4225 17.16 61.4825 17.17C61.5475 17.175 61.6025 17.19 61.6475 17.215C61.6975 17.235 61.745 17.2675 61.79 17.3125C61.835 17.3525 61.885 17.4075 61.94 17.4775L67.625 24.7375C67.61 24.5625 67.5975 24.39 67.5875 24.22C67.5775 24.05 67.5725 23.8925 67.5725 23.7475V17.155H69.35ZM76.1957 23.2675C76.1957 23.0275 76.1607 22.8025 76.0907 22.5925C76.0257 22.3775 75.9257 22.19 75.7907 22.03C75.6557 21.87 75.4832 21.745 75.2732 21.655C75.0682 21.56 74.8282 21.5125 74.5532 21.5125C74.0182 21.5125 73.5957 21.665 73.2857 21.97C72.9807 22.275 72.7857 22.7075 72.7007 23.2675H76.1957ZM72.6632 24.385C72.6932 24.78 72.7632 25.1225 72.8732 25.4125C72.9832 25.6975 73.1282 25.935 73.3082 26.125C73.4882 26.31 73.7007 26.45 73.9457 26.545C74.1957 26.635 74.4707 26.68 74.7707 26.68C75.0707 26.68 75.3282 26.645 75.5432 26.575C75.7632 26.505 75.9532 26.4275 76.1132 26.3425C76.2782 26.2575 76.4207 26.18 76.5407 26.11C76.6657 26.04 76.7857 26.005 76.9007 26.005C77.0557 26.005 77.1707 26.0625 77.2457 26.1775L77.7782 26.8525C77.5732 27.0925 77.3432 27.295 77.0882 27.46C76.8332 27.62 76.5657 27.75 76.2857 27.85C76.0107 27.945 75.7282 28.0125 75.4382 28.0525C75.1532 28.0925 74.8757 28.1125 74.6057 28.1125C74.0707 28.1125 73.5732 28.025 73.1132 27.85C72.6532 27.67 72.2532 27.4075 71.9132 27.0625C71.5732 26.7125 71.3057 26.2825 71.1107 25.7725C70.9157 25.2575 70.8182 24.6625 70.8182 23.9875C70.8182 23.4625 70.9032 22.97 71.0732 22.51C71.2432 22.045 71.4857 21.6425 71.8007 21.3025C72.1207 20.9575 72.5082 20.685 72.9632 20.485C73.4232 20.285 73.9407 20.185 74.5157 20.185C75.0007 20.185 75.4482 20.2625 75.8582 20.4175C76.2682 20.5725 76.6207 20.8 76.9157 21.1C77.2107 21.395 77.4407 21.76 77.6057 22.195C77.7757 22.625 77.8607 23.1175 77.8607 23.6725C77.8607 23.9525 77.8307 24.1425 77.7707 24.2425C77.7107 24.3375 77.5957 24.385 77.4257 24.385H72.6632ZM90.1359 20.305L87.6909 28H86.2059C86.0359 28 85.9184 27.89 85.8534 27.67L84.4734 23.2225C84.4284 23.0725 84.3859 22.925 84.3459 22.78C84.3109 22.63 84.2809 22.48 84.2559 22.33C84.2259 22.48 84.1909 22.6325 84.1509 22.7875C84.1159 22.9375 84.0759 23.0875 84.0309 23.2375L82.6284 27.67C82.5684 27.89 82.4359 28 82.2309 28H80.8059L78.3684 20.305H79.8459C79.9809 20.305 80.0959 20.3375 80.1909 20.4025C80.2859 20.4675 80.3484 20.55 80.3784 20.65L81.4809 24.76C81.5359 24.985 81.5834 25.205 81.6234 25.42C81.6684 25.635 81.7059 25.85 81.7359 26.065C81.7909 25.85 81.8484 25.635 81.9084 25.42C81.9734 25.205 82.0409 24.985 82.1109 24.76L83.3859 20.635C83.4159 20.535 83.4734 20.4525 83.5584 20.3875C83.6484 20.3225 83.7559 20.29 83.8809 20.29H84.6984C84.8284 20.29 84.9384 20.3225 85.0284 20.3875C85.1234 20.4525 85.1859 20.535 85.2159 20.635L86.4534 24.76C86.5184 24.985 86.5784 25.2075 86.6334 25.4275C86.6934 25.6425 86.7509 25.8575 86.8059 26.0725C86.8709 25.6475 86.9634 25.21 87.0834 24.76L88.2159 20.65C88.2509 20.55 88.3134 20.4675 88.4034 20.4025C88.4934 20.3375 88.6009 20.305 88.7259 20.305H90.1359ZM98.3468 22.6075C98.7168 22.6075 99.0393 22.5625 99.3143 22.4725C99.5893 22.3775 99.8168 22.245 99.9968 22.075C100.182 21.9 100.319 21.69 100.409 21.445C100.499 21.195 100.544 20.9175 100.544 20.6125C100.544 20.3225 100.499 20.06 100.409 19.825C100.319 19.59 100.184 19.39 100.004 19.225C99.8243 19.06 99.5968 18.935 99.3218 18.85C99.0468 18.76 98.7218 18.715 98.3468 18.715H96.8393V22.6075H98.3468ZM98.3468 17.155C99.0718 17.155 99.6993 17.24 100.229 17.41C100.759 17.58 101.197 17.8175 101.542 18.1225C101.887 18.4275 102.142 18.7925 102.307 19.2175C102.477 19.6425 102.562 20.1075 102.562 20.6125C102.562 21.1375 102.474 21.62 102.299 22.06C102.124 22.495 101.862 22.87 101.512 23.185C101.162 23.5 100.722 23.745 100.192 23.92C99.6668 24.095 99.0518 24.1825 98.3468 24.1825H96.8393V28H94.8218V17.155H98.3468ZM107.647 24.715C107.112 24.74 106.662 24.7875 106.297 24.8575C105.932 24.9225 105.639 25.0075 105.419 25.1125C105.199 25.2175 105.042 25.34 104.947 25.48C104.852 25.62 104.804 25.7725 104.804 25.9375C104.804 26.2625 104.899 26.495 105.089 26.635C105.284 26.775 105.537 26.845 105.847 26.845C106.227 26.845 106.554 26.7775 106.829 26.6425C107.109 26.5025 107.382 26.2925 107.647 26.0125V24.715ZM103.402 21.3775C104.287 20.5675 105.352 20.1625 106.597 20.1625C107.047 20.1625 107.449 20.2375 107.804 20.3875C108.159 20.5325 108.459 20.7375 108.704 21.0025C108.949 21.2625 109.134 21.575 109.259 21.94C109.389 22.305 109.454 22.705 109.454 23.14V28H108.614C108.439 28 108.304 27.975 108.209 27.925C108.114 27.87 108.039 27.7625 107.984 27.6025L107.819 27.0475C107.624 27.2225 107.434 27.3775 107.249 27.5125C107.064 27.6425 106.872 27.7525 106.672 27.8425C106.472 27.9325 106.257 28 106.027 28.045C105.802 28.095 105.552 28.12 105.277 28.12C104.952 28.12 104.652 28.0775 104.377 27.9925C104.102 27.9025 103.864 27.77 103.664 27.595C103.464 27.42 103.309 27.2025 103.199 26.9425C103.089 26.6825 103.034 26.38 103.034 26.035C103.034 25.84 103.067 25.6475 103.132 25.4575C103.197 25.2625 103.302 25.0775 103.447 24.9025C103.597 24.7275 103.789 24.5625 104.024 24.4075C104.259 24.2525 104.547 24.1175 104.887 24.0025C105.232 23.8875 105.632 23.795 106.087 23.725C106.542 23.65 107.062 23.605 107.647 23.59V23.14C107.647 22.625 107.537 22.245 107.317 22C107.097 21.75 106.779 21.625 106.364 21.625C106.064 21.625 105.814 21.66 105.614 21.73C105.419 21.8 105.247 21.88 105.097 21.97C104.947 22.055 104.809 22.1325 104.684 22.2025C104.564 22.2725 104.429 22.3075 104.279 22.3075C104.149 22.3075 104.039 22.275 103.949 22.21C103.859 22.14 103.787 22.06 103.732 21.97L103.402 21.3775ZM112.947 21.64C113.187 21.18 113.472 20.82 113.802 20.56C114.132 20.295 114.522 20.1625 114.972 20.1625C115.327 20.1625 115.612 20.24 115.827 20.395L115.707 21.7825C115.682 21.8725 115.644 21.9375 115.594 21.9775C115.549 22.0125 115.487 22.03 115.407 22.03C115.332 22.03 115.219 22.0175 115.069 21.9925C114.924 21.9675 114.782 21.955 114.642 21.955C114.437 21.955 114.254 21.985 114.094 22.045C113.934 22.105 113.789 22.1925 113.659 22.3075C113.534 22.4175 113.422 22.5525 113.322 22.7125C113.227 22.8725 113.137 23.055 113.052 23.26V28H111.199V20.305H112.287C112.477 20.305 112.609 20.34 112.684 20.41C112.759 20.475 112.809 20.595 112.834 20.77L112.947 21.64ZM118.647 16.855V23.2375H118.992C119.117 23.2375 119.215 23.2225 119.285 23.1925C119.36 23.1575 119.435 23.09 119.51 22.99L121.422 20.6275C121.502 20.5225 121.59 20.4425 121.685 20.3875C121.785 20.3325 121.912 20.305 122.067 20.305H123.762L121.37 23.1625C121.2 23.3875 121.015 23.56 120.815 23.68C120.92 23.755 121.012 23.8425 121.092 23.9425C121.177 24.0425 121.257 24.15 121.332 24.265L123.897 28H122.225C122.08 28 121.955 27.9775 121.85 27.9325C121.745 27.8825 121.657 27.795 121.587 27.67L119.622 24.7525C119.552 24.6375 119.48 24.5625 119.405 24.5275C119.33 24.4925 119.217 24.475 119.067 24.475H118.647V28H116.795V16.855H118.647ZM126.728 20.305V28H124.868V20.305H126.728ZM126.983 18.0625C126.983 18.2225 126.95 18.3725 126.885 18.5125C126.82 18.6525 126.733 18.775 126.623 18.88C126.518 18.985 126.393 19.07 126.248 19.135C126.103 19.195 125.948 19.225 125.783 19.225C125.623 19.225 125.47 19.195 125.325 19.135C125.185 19.07 125.063 18.985 124.958 18.88C124.853 18.775 124.768 18.6525 124.703 18.5125C124.643 18.3725 124.613 18.2225 124.613 18.0625C124.613 17.8975 124.643 17.7425 124.703 17.5975C124.768 17.4525 124.853 17.3275 124.958 17.2225C125.063 17.1175 125.185 17.035 125.325 16.975C125.47 16.91 125.623 16.8775 125.783 16.8775C125.948 16.8775 126.103 16.91 126.248 16.975C126.393 17.035 126.518 17.1175 126.623 17.2225C126.733 17.3275 126.82 17.4525 126.885 17.5975C126.95 17.7425 126.983 17.8975 126.983 18.0625ZM130.349 21.25C130.504 21.095 130.666 20.9525 130.836 20.8225C131.011 20.6875 131.194 20.575 131.384 20.485C131.579 20.39 131.786 20.3175 132.006 20.2675C132.226 20.2125 132.466 20.185 132.726 20.185C133.146 20.185 133.519 20.2575 133.844 20.4025C134.169 20.5425 134.439 20.7425 134.654 21.0025C134.874 21.2575 135.039 21.565 135.149 21.925C135.264 22.28 135.321 22.6725 135.321 23.1025V28H133.469V23.1025C133.469 22.6325 133.361 22.27 133.146 22.015C132.931 21.755 132.604 21.625 132.164 21.625C131.844 21.625 131.544 21.6975 131.264 21.8425C130.984 21.9875 130.719 22.185 130.469 22.435V28H128.616V20.305H129.749C129.989 20.305 130.146 20.4175 130.221 20.6425L130.349 21.25ZM139.895 23.965C140.125 23.965 140.325 23.935 140.495 23.875C140.665 23.81 140.805 23.7225 140.915 23.6125C141.03 23.5025 141.115 23.37 141.17 23.215C141.23 23.06 141.26 22.89 141.26 22.705C141.26 22.325 141.145 22.025 140.915 21.805C140.69 21.58 140.35 21.4675 139.895 21.4675C139.44 21.4675 139.098 21.58 138.868 21.805C138.643 22.025 138.53 22.325 138.53 22.705C138.53 22.885 138.558 23.0525 138.613 23.2075C138.673 23.3625 138.758 23.4975 138.868 23.6125C138.983 23.7225 139.125 23.81 139.295 23.875C139.47 23.935 139.67 23.965 139.895 23.965ZM141.988 28.345C141.988 28.195 141.943 28.0725 141.853 27.9775C141.763 27.8825 141.64 27.81 141.485 27.76C141.33 27.705 141.148 27.665 140.938 27.64C140.733 27.615 140.513 27.5975 140.278 27.5875C140.048 27.5725 139.808 27.56 139.558 27.55C139.313 27.54 139.073 27.52 138.838 27.49C138.633 27.605 138.465 27.74 138.335 27.895C138.21 28.05 138.148 28.23 138.148 28.435C138.148 28.57 138.18 28.695 138.245 28.81C138.315 28.93 138.423 29.0325 138.568 29.1175C138.718 29.2025 138.91 29.2675 139.145 29.3125C139.38 29.3625 139.668 29.3875 140.008 29.3875C140.353 29.3875 140.65 29.36 140.9 29.305C141.15 29.255 141.355 29.1825 141.515 29.0875C141.68 28.9975 141.8 28.8875 141.875 28.7575C141.95 28.6325 141.988 28.495 141.988 28.345ZM143.833 20.5675V21.2575C143.833 21.4775 143.7 21.6125 143.435 21.6625L142.745 21.79C142.85 22.055 142.903 22.345 142.903 22.66C142.903 23.04 142.825 23.385 142.67 23.695C142.52 24 142.31 24.26 142.04 24.475C141.77 24.69 141.45 24.8575 141.08 24.9775C140.715 25.0925 140.32 25.15 139.895 25.15C139.745 25.15 139.6 25.1425 139.46 25.1275C139.32 25.1125 139.183 25.0925 139.048 25.0675C138.808 25.2125 138.688 25.375 138.688 25.555C138.688 25.71 138.758 25.825 138.898 25.9C139.043 25.97 139.233 26.02 139.468 26.05C139.703 26.08 139.97 26.1 140.27 26.11C140.57 26.115 140.878 26.13 141.193 26.155C141.508 26.18 141.815 26.225 142.115 26.29C142.415 26.35 142.683 26.4475 142.918 26.5825C143.153 26.7175 143.34 26.9025 143.48 27.1375C143.625 27.3675 143.698 27.665 143.698 28.03C143.698 28.37 143.613 28.7 143.443 29.02C143.278 29.34 143.035 29.625 142.715 29.875C142.4 30.125 142.01 30.325 141.545 30.475C141.085 30.63 140.56 30.7075 139.97 30.7075C139.39 30.7075 138.885 30.65 138.455 30.535C138.025 30.425 137.668 30.275 137.383 30.085C137.098 29.9 136.885 29.685 136.745 29.44C136.605 29.195 136.535 28.94 136.535 28.675C136.535 28.315 136.643 28.015 136.858 27.775C137.078 27.53 137.378 27.335 137.758 27.19C137.553 27.085 137.39 26.945 137.27 26.77C137.15 26.595 137.09 26.365 137.09 26.08C137.09 25.965 137.11 25.8475 137.15 25.7275C137.195 25.6025 137.258 25.48 137.338 25.36C137.423 25.24 137.528 25.1275 137.653 25.0225C137.778 24.9125 137.925 24.815 138.095 24.73C137.705 24.52 137.398 24.24 137.173 23.89C136.953 23.54 136.843 23.13 136.843 22.66C136.843 22.28 136.918 21.9375 137.068 21.6325C137.223 21.3225 137.435 21.06 137.705 20.845C137.98 20.625 138.303 20.4575 138.673 20.3425C139.048 20.2275 139.455 20.17 139.895 20.17C140.225 20.17 140.535 20.205 140.825 20.275C141.115 20.34 141.38 20.4375 141.62 20.5675H143.833Z" fill="#575758"/>
<defs>
<filter id="filter0_d" x="0" y="0" width="162" height="51" filterUnits="userSpaceOnUse" color-interpolation-filters="sRGB">
<feFlood flood-opacity="0" result="BackgroundImageFix"/>
<feColorMatrix in="SourceAlpha" type="matrix" values="0 0 0 0 0 0 0 0 0 0 0 0 0 0 0 0 0 0 127 0"/>
<feOffset dy="4"/>
<feGaussianBlur stdDeviation="2"/>
<feColorMatrix type="matrix" values="0 0 0 0 0 0 0 0 0 0 0 0 0 0 0 0 0 0 0.25 0"/>
<feBlend mode="normal" in2="BackgroundImageFix" result="effect1_dropShadow"/>
<feBlend mode="normal" in="SourceGraphic" in2="effect1_dropShadow" result="shape"/>
</filter>
</defs>
</svg>
