<svg width="30" height="30" viewBox="0 0 30 30" fill="none" xmlns="http://www.w3.org/2000/svg">
<rect width="30" height="30" rx="6" fill="#E06F6F" fill-opacity="0.42"/>
<path d="M15 7.5C16.375 7.5 17.5 8.625 17.5 10C17.5 11.375 16.375 12.5 15 12.5C13.625 12.5 12.5 11.375 12.5 10C12.5 8.625 13.625 7.5 15 7.5ZM15 18.75C18.375 18.75 22.25 20.3625 22.5 21.25V22.5H7.5V21.2625C7.75 20.3625 11.625 18.75 15 18.75ZM15 5C12.2375 5 10 7.2375 10 10C10 12.7625 12.2375 15 15 15C17.7625 15 20 12.7625 20 10C20 7.2375 17.7625 5 15 5ZM15 16.25C11.6625 16.25 5 17.925 5 21.25V25H25V21.25C25 17.925 18.3375 16.25 15 16.25Z" fill="#54428E"/>
</svg>
