<svg width="165" height="51" viewBox="0 0 165 51" fill="none" xmlns="http://www.w3.org/2000/svg">
<g filter="url(#filter0_d)">
<rect x="4" width="154" height="43" rx="10" fill="white"/>
</g>
<path d="M32.655 24.4425C32.765 24.4425 32.8625 24.485 32.9475 24.57L33.7425 25.4325C33.3025 25.9775 32.76 26.395 32.115 26.685C31.475 26.975 30.705 27.12 29.805 27.12C29 27.12 28.275 26.9825 27.63 26.7075C26.99 26.4325 26.4425 26.05 25.9875 25.56C25.5325 25.07 25.1825 24.485 24.9375 23.805C24.6975 23.125 24.5775 22.3825 24.5775 21.5775C24.5775 20.7625 24.7075 20.0175 24.9675 19.3425C25.2275 18.6625 25.5925 18.0775 26.0625 17.5875C26.5375 17.0975 27.1025 16.7175 27.7575 16.4475C28.4125 16.1725 29.1375 16.035 29.9325 16.035C30.7225 16.035 31.4225 16.165 32.0325 16.425C32.6475 16.685 33.17 17.025 33.6 17.445L32.925 18.3825C32.885 18.4425 32.8325 18.495 32.7675 18.54C32.7075 18.585 32.6225 18.6075 32.5125 18.6075C32.4375 18.6075 32.36 18.5875 32.28 18.5475C32.2 18.5025 32.1125 18.45 32.0175 18.39C31.9225 18.325 31.8125 18.255 31.6875 18.18C31.5625 18.105 31.4175 18.0375 31.2525 17.9775C31.0875 17.9125 30.895 17.86 30.675 17.82C30.46 17.775 30.21 17.7525 29.925 17.7525C29.44 17.7525 28.995 17.84 28.59 18.015C28.19 18.185 27.845 18.435 27.555 18.765C27.265 19.09 27.04 19.49 26.88 19.965C26.72 20.435 26.64 20.9725 26.64 21.5775C26.64 22.1875 26.725 22.73 26.895 23.205C27.07 23.68 27.305 24.08 27.6 24.405C27.895 24.73 28.2425 24.98 28.6425 25.155C29.0425 25.325 29.4725 25.41 29.9325 25.41C30.2075 25.41 30.455 25.395 30.675 25.365C30.9 25.335 31.105 25.2875 31.29 25.2225C31.48 25.1575 31.6575 25.075 31.8225 24.975C31.9925 24.87 32.16 24.7425 32.325 24.5925C32.375 24.5475 32.4275 24.5125 32.4825 24.4875C32.5375 24.4575 32.595 24.4425 32.655 24.4425ZM36.6845 20.13C36.9845 19.85 37.3145 19.6225 37.6745 19.4475C38.0345 19.2725 38.457 19.185 38.942 19.185C39.362 19.185 39.7345 19.2575 40.0595 19.4025C40.3845 19.5425 40.6545 19.7425 40.8695 20.0025C41.0895 20.2575 41.2545 20.565 41.3645 20.925C41.4795 21.28 41.537 21.6725 41.537 22.1025V27H39.6845V22.1025C39.6845 21.6325 39.577 21.27 39.362 21.015C39.147 20.755 38.8195 20.625 38.3795 20.625C38.0595 20.625 37.7595 20.6975 37.4795 20.8425C37.1995 20.9875 36.9345 21.185 36.6845 21.435V27H34.832V15.855H36.6845V20.13ZM47.3638 23.715C46.8288 23.74 46.3788 23.7875 46.0138 23.8575C45.6488 23.9225 45.3563 24.0075 45.1363 24.1125C44.9163 24.2175 44.7588 24.34 44.6638 24.48C44.5688 24.62 44.5213 24.7725 44.5213 24.9375C44.5213 25.2625 44.6163 25.495 44.8063 25.635C45.0013 25.775 45.2538 25.845 45.5638 25.845C45.9438 25.845 46.2713 25.7775 46.5463 25.6425C46.8263 25.5025 47.0988 25.2925 47.3638 25.0125V23.715ZM43.1188 20.3775C44.0038 19.5675 45.0688 19.1625 46.3138 19.1625C46.7638 19.1625 47.1663 19.2375 47.5213 19.3875C47.8763 19.5325 48.1763 19.7375 48.4213 20.0025C48.6663 20.2625 48.8513 20.575 48.9763 20.94C49.1063 21.305 49.1713 21.705 49.1713 22.14V27H48.3313C48.1563 27 48.0213 26.975 47.9263 26.925C47.8313 26.87 47.7563 26.7625 47.7013 26.6025L47.5363 26.0475C47.3413 26.2225 47.1513 26.3775 46.9663 26.5125C46.7813 26.6425 46.5888 26.7525 46.3888 26.8425C46.1888 26.9325 45.9738 27 45.7438 27.045C45.5188 27.095 45.2688 27.12 44.9938 27.12C44.6688 27.12 44.3688 27.0775 44.0938 26.9925C43.8188 26.9025 43.5813 26.77 43.3813 26.595C43.1813 26.42 43.0263 26.2025 42.9163 25.9425C42.8063 25.6825 42.7513 25.38 42.7513 25.035C42.7513 24.84 42.7838 24.6475 42.8488 24.4575C42.9138 24.2625 43.0188 24.0775 43.1638 23.9025C43.3138 23.7275 43.5063 23.5625 43.7413 23.4075C43.9763 23.2525 44.2638 23.1175 44.6038 23.0025C44.9488 22.8875 45.3488 22.795 45.8038 22.725C46.2588 22.65 46.7788 22.605 47.3638 22.59V22.14C47.3638 21.625 47.2538 21.245 47.0338 21C46.8138 20.75 46.4963 20.625 46.0813 20.625C45.7813 20.625 45.5313 20.66 45.3313 20.73C45.1363 20.8 44.9638 20.88 44.8138 20.97C44.6638 21.055 44.5263 21.1325 44.4013 21.2025C44.2813 21.2725 44.1463 21.3075 43.9963 21.3075C43.8663 21.3075 43.7563 21.275 43.6663 21.21C43.5763 21.14 43.5038 21.06 43.4488 20.97L43.1188 20.3775ZM52.6485 20.25C52.8035 20.095 52.966 19.9525 53.136 19.8225C53.311 19.6875 53.4935 19.575 53.6835 19.485C53.8785 19.39 54.086 19.3175 54.306 19.2675C54.526 19.2125 54.766 19.185 55.026 19.185C55.446 19.185 55.8185 19.2575 56.1435 19.4025C56.4685 19.5425 56.7385 19.7425 56.9535 20.0025C57.1735 20.2575 57.3385 20.565 57.4485 20.925C57.5635 21.28 57.621 21.6725 57.621 22.1025V27H55.7685V22.1025C55.7685 21.6325 55.661 21.27 55.446 21.015C55.231 20.755 54.9035 20.625 54.4635 20.625C54.1435 20.625 53.8435 20.6975 53.5635 20.8425C53.2835 20.9875 53.0185 21.185 52.7685 21.435V27H50.916V19.305H52.0485C52.2885 19.305 52.446 19.4175 52.521 19.6425L52.6485 20.25ZM62.1953 22.965C62.4253 22.965 62.6253 22.935 62.7953 22.875C62.9653 22.81 63.1053 22.7225 63.2153 22.6125C63.3303 22.5025 63.4153 22.37 63.4703 22.215C63.5303 22.06 63.5603 21.89 63.5603 21.705C63.5603 21.325 63.4453 21.025 63.2153 20.805C62.9903 20.58 62.6503 20.4675 62.1953 20.4675C61.7403 20.4675 61.3978 20.58 61.1678 20.805C60.9428 21.025 60.8303 21.325 60.8303 21.705C60.8303 21.885 60.8578 22.0525 60.9128 22.2075C60.9728 22.3625 61.0578 22.4975 61.1678 22.6125C61.2828 22.7225 61.4253 22.81 61.5953 22.875C61.7703 22.935 61.9703 22.965 62.1953 22.965ZM64.2878 27.345C64.2878 27.195 64.2428 27.0725 64.1528 26.9775C64.0628 26.8825 63.9403 26.81 63.7853 26.76C63.6303 26.705 63.4478 26.665 63.2378 26.64C63.0328 26.615 62.8128 26.5975 62.5778 26.5875C62.3478 26.5725 62.1078 26.56 61.8578 26.55C61.6128 26.54 61.3728 26.52 61.1378 26.49C60.9328 26.605 60.7653 26.74 60.6353 26.895C60.5103 27.05 60.4478 27.23 60.4478 27.435C60.4478 27.57 60.4803 27.695 60.5453 27.81C60.6153 27.93 60.7228 28.0325 60.8678 28.1175C61.0178 28.2025 61.2103 28.2675 61.4453 28.3125C61.6803 28.3625 61.9678 28.3875 62.3078 28.3875C62.6528 28.3875 62.9503 28.36 63.2003 28.305C63.4503 28.255 63.6553 28.1825 63.8153 28.0875C63.9803 27.9975 64.1003 27.8875 64.1753 27.7575C64.2503 27.6325 64.2878 27.495 64.2878 27.345ZM66.1328 19.5675V20.2575C66.1328 20.4775 66.0003 20.6125 65.7353 20.6625L65.0453 20.79C65.1503 21.055 65.2028 21.345 65.2028 21.66C65.2028 22.04 65.1253 22.385 64.9703 22.695C64.8203 23 64.6103 23.26 64.3403 23.475C64.0703 23.69 63.7503 23.8575 63.3803 23.9775C63.0153 24.0925 62.6203 24.15 62.1953 24.15C62.0453 24.15 61.9003 24.1425 61.7603 24.1275C61.6203 24.1125 61.4828 24.0925 61.3478 24.0675C61.1078 24.2125 60.9878 24.375 60.9878 24.555C60.9878 24.71 61.0578 24.825 61.1978 24.9C61.3428 24.97 61.5328 25.02 61.7678 25.05C62.0028 25.08 62.2703 25.1 62.5703 25.11C62.8703 25.115 63.1778 25.13 63.4928 25.155C63.8078 25.18 64.1153 25.225 64.4153 25.29C64.7153 25.35 64.9828 25.4475 65.2178 25.5825C65.4528 25.7175 65.6403 25.9025 65.7803 26.1375C65.9253 26.3675 65.9978 26.665 65.9978 27.03C65.9978 27.37 65.9128 27.7 65.7428 28.02C65.5778 28.34 65.3353 28.625 65.0153 28.875C64.7003 29.125 64.3103 29.325 63.8453 29.475C63.3853 29.63 62.8603 29.7075 62.2703 29.7075C61.6903 29.7075 61.1853 29.65 60.7553 29.535C60.3253 29.425 59.9678 29.275 59.6828 29.085C59.3978 28.9 59.1853 28.685 59.0453 28.44C58.9053 28.195 58.8353 27.94 58.8353 27.675C58.8353 27.315 58.9428 27.015 59.1578 26.775C59.3778 26.53 59.6778 26.335 60.0578 26.19C59.8528 26.085 59.6903 25.945 59.5703 25.77C59.4503 25.595 59.3903 25.365 59.3903 25.08C59.3903 24.965 59.4103 24.8475 59.4503 24.7275C59.4953 24.6025 59.5578 24.48 59.6378 24.36C59.7228 24.24 59.8278 24.1275 59.9528 24.0225C60.0778 23.9125 60.2253 23.815 60.3953 23.73C60.0053 23.52 59.6978 23.24 59.4728 22.89C59.2528 22.54 59.1428 22.13 59.1428 21.66C59.1428 21.28 59.2178 20.9375 59.3678 20.6325C59.5228 20.3225 59.7353 20.06 60.0053 19.845C60.2803 19.625 60.6028 19.4575 60.9728 19.3425C61.3478 19.2275 61.7553 19.17 62.1953 19.17C62.5253 19.17 62.8353 19.205 63.1253 19.275C63.4153 19.34 63.6803 19.4375 63.9203 19.5675H66.1328ZM72.1332 22.2675C72.1332 22.0275 72.0982 21.8025 72.0282 21.5925C71.9632 21.3775 71.8632 21.19 71.7282 21.03C71.5932 20.87 71.4207 20.745 71.2107 20.655C71.0057 20.56 70.7657 20.5125 70.4907 20.5125C69.9557 20.5125 69.5332 20.665 69.2232 20.97C68.9182 21.275 68.7232 21.7075 68.6382 22.2675H72.1332ZM68.6007 23.385C68.6307 23.78 68.7007 24.1225 68.8107 24.4125C68.9207 24.6975 69.0657 24.935 69.2457 25.125C69.4257 25.31 69.6382 25.45 69.8832 25.545C70.1332 25.635 70.4082 25.68 70.7082 25.68C71.0082 25.68 71.2657 25.645 71.4807 25.575C71.7007 25.505 71.8907 25.4275 72.0507 25.3425C72.2157 25.2575 72.3582 25.18 72.4782 25.11C72.6032 25.04 72.7232 25.005 72.8382 25.005C72.9932 25.005 73.1082 25.0625 73.1832 25.1775L73.7157 25.8525C73.5107 26.0925 73.2807 26.295 73.0257 26.46C72.7707 26.62 72.5032 26.75 72.2232 26.85C71.9482 26.945 71.6657 27.0125 71.3757 27.0525C71.0907 27.0925 70.8132 27.1125 70.5432 27.1125C70.0082 27.1125 69.5107 27.025 69.0507 26.85C68.5907 26.67 68.1907 26.4075 67.8507 26.0625C67.5107 25.7125 67.2432 25.2825 67.0482 24.7725C66.8532 24.2575 66.7557 23.6625 66.7557 22.9875C66.7557 22.4625 66.8407 21.97 67.0107 21.51C67.1807 21.045 67.4232 20.6425 67.7382 20.3025C68.0582 19.9575 68.4457 19.685 68.9007 19.485C69.3607 19.285 69.8782 19.185 70.4532 19.185C70.9382 19.185 71.3857 19.2625 71.7957 19.4175C72.2057 19.5725 72.5582 19.8 72.8532 20.1C73.1482 20.395 73.3782 20.76 73.5432 21.195C73.7132 21.625 73.7982 22.1175 73.7982 22.6725C73.7982 22.9525 73.7682 23.1425 73.7082 23.2425C73.6482 23.3375 73.5332 23.385 73.3632 23.385H68.6007ZM82.6534 21.6075C83.0234 21.6075 83.3459 21.5625 83.6209 21.4725C83.8959 21.3775 84.1234 21.245 84.3034 21.075C84.4884 20.9 84.6259 20.69 84.7159 20.445C84.8059 20.195 84.8509 19.9175 84.8509 19.6125C84.8509 19.3225 84.8059 19.06 84.7159 18.825C84.6259 18.59 84.4909 18.39 84.3109 18.225C84.1309 18.06 83.9034 17.935 83.6284 17.85C83.3534 17.76 83.0284 17.715 82.6534 17.715H81.1459V21.6075H82.6534ZM82.6534 16.155C83.3784 16.155 84.0059 16.24 84.5359 16.41C85.0659 16.58 85.5034 16.8175 85.8484 17.1225C86.1934 17.4275 86.4484 17.7925 86.6134 18.2175C86.7834 18.6425 86.8684 19.1075 86.8684 19.6125C86.8684 20.1375 86.7809 20.62 86.6059 21.06C86.4309 21.495 86.1684 21.87 85.8184 22.185C85.4684 22.5 85.0284 22.745 84.4984 22.92C83.9734 23.095 83.3584 23.1825 82.6534 23.1825H81.1459V27H79.1284V16.155H82.6534ZM91.9536 23.715C91.4186 23.74 90.9686 23.7875 90.6036 23.8575C90.2386 23.9225 89.9461 24.0075 89.7261 24.1125C89.5061 24.2175 89.3486 24.34 89.2536 24.48C89.1586 24.62 89.1111 24.7725 89.1111 24.9375C89.1111 25.2625 89.2061 25.495 89.3961 25.635C89.5911 25.775 89.8436 25.845 90.1536 25.845C90.5336 25.845 90.8611 25.7775 91.1361 25.6425C91.4161 25.5025 91.6886 25.2925 91.9536 25.0125V23.715ZM87.7086 20.3775C88.5936 19.5675 89.6586 19.1625 90.9036 19.1625C91.3536 19.1625 91.7561 19.2375 92.1111 19.3875C92.4661 19.5325 92.7661 19.7375 93.0111 20.0025C93.2561 20.2625 93.4411 20.575 93.5661 20.94C93.6961 21.305 93.7611 21.705 93.7611 22.14V27H92.9211C92.7461 27 92.6111 26.975 92.5161 26.925C92.4211 26.87 92.3461 26.7625 92.2911 26.6025L92.1261 26.0475C91.9311 26.2225 91.7411 26.3775 91.5561 26.5125C91.3711 26.6425 91.1786 26.7525 90.9786 26.8425C90.7786 26.9325 90.5636 27 90.3336 27.045C90.1086 27.095 89.8586 27.12 89.5836 27.12C89.2586 27.12 88.9586 27.0775 88.6836 26.9925C88.4086 26.9025 88.1711 26.77 87.9711 26.595C87.7711 26.42 87.6161 26.2025 87.5061 25.9425C87.3961 25.6825 87.3411 25.38 87.3411 25.035C87.3411 24.84 87.3736 24.6475 87.4386 24.4575C87.5036 24.2625 87.6086 24.0775 87.7536 23.9025C87.9036 23.7275 88.0961 23.5625 88.3311 23.4075C88.5661 23.2525 88.8536 23.1175 89.1936 23.0025C89.5386 22.8875 89.9386 22.795 90.3936 22.725C90.8486 22.65 91.3686 22.605 91.9536 22.59V22.14C91.9536 21.625 91.8436 21.245 91.6236 21C91.4036 20.75 91.0861 20.625 90.6711 20.625C90.3711 20.625 90.1211 20.66 89.9211 20.73C89.7261 20.8 89.5536 20.88 89.4036 20.97C89.2536 21.055 89.1161 21.1325 88.9911 21.2025C88.8711 21.2725 88.7361 21.3075 88.5861 21.3075C88.4561 21.3075 88.3461 21.275 88.2561 21.21C88.1661 21.14 88.0936 21.06 88.0386 20.97L87.7086 20.3775ZM100.201 20.805C100.151 20.885 100.098 20.9425 100.043 20.9775C99.9883 21.0075 99.9183 21.0225 99.8333 21.0225C99.7433 21.0225 99.6458 20.9975 99.5408 20.9475C99.4408 20.8975 99.3233 20.8425 99.1883 20.7825C99.0533 20.7175 98.8983 20.66 98.7233 20.61C98.5533 20.56 98.3508 20.535 98.1158 20.535C97.7508 20.535 97.4633 20.6125 97.2533 20.7675C97.0483 20.9225 96.9458 21.125 96.9458 21.375C96.9458 21.54 96.9983 21.68 97.1033 21.795C97.2133 21.905 97.3558 22.0025 97.5308 22.0875C97.7108 22.1725 97.9133 22.25 98.1383 22.32C98.3633 22.385 98.5908 22.4575 98.8208 22.5375C99.0558 22.6175 99.2858 22.71 99.5108 22.815C99.7358 22.915 99.9358 23.045 100.111 23.205C100.291 23.36 100.433 23.5475 100.538 23.7675C100.648 23.9875 100.703 24.2525 100.703 24.5625C100.703 24.9325 100.636 25.275 100.501 25.59C100.371 25.9 100.176 26.17 99.9158 26.4C99.6558 26.625 99.3333 26.8025 98.9483 26.9325C98.5683 27.0575 98.1283 27.12 97.6283 27.12C97.3633 27.12 97.1033 27.095 96.8483 27.045C96.5983 27 96.3558 26.935 96.1208 26.85C95.8908 26.765 95.6758 26.665 95.4758 26.55C95.2808 26.435 95.1083 26.31 94.9583 26.175L95.3858 25.47C95.4408 25.385 95.5058 25.32 95.5808 25.275C95.6558 25.23 95.7508 25.2075 95.8658 25.2075C95.9808 25.2075 96.0883 25.24 96.1883 25.305C96.2933 25.37 96.4133 25.44 96.5483 25.515C96.6833 25.59 96.8408 25.66 97.0208 25.725C97.2058 25.79 97.4383 25.8225 97.7183 25.8225C97.9383 25.8225 98.1258 25.7975 98.2808 25.7475C98.4408 25.6925 98.5708 25.6225 98.6708 25.5375C98.7758 25.4525 98.8508 25.355 98.8958 25.245C98.9458 25.13 98.9708 25.0125 98.9708 24.8925C98.9708 24.7125 98.9158 24.565 98.8058 24.45C98.7008 24.335 98.5583 24.235 98.3783 24.15C98.2033 24.065 98.0008 23.99 97.7708 23.925C97.5458 23.855 97.3133 23.78 97.0733 23.7C96.8383 23.62 96.6058 23.5275 96.3758 23.4225C96.1508 23.3125 95.9483 23.175 95.7683 23.01C95.5933 22.845 95.4508 22.6425 95.3408 22.4025C95.2358 22.1625 95.1833 21.8725 95.1833 21.5325C95.1833 21.2175 95.2458 20.9175 95.3708 20.6325C95.4958 20.3475 95.6783 20.1 95.9183 19.89C96.1633 19.675 96.4658 19.505 96.8258 19.38C97.1908 19.25 97.6108 19.185 98.0858 19.185C98.6158 19.185 99.0983 19.2725 99.5333 19.4475C99.9683 19.6225 100.331 19.8525 100.621 20.1375L100.201 20.805ZM106.793 20.805C106.743 20.885 106.69 20.9425 106.635 20.9775C106.58 21.0075 106.51 21.0225 106.425 21.0225C106.335 21.0225 106.238 20.9975 106.133 20.9475C106.033 20.8975 105.915 20.8425 105.78 20.7825C105.645 20.7175 105.49 20.66 105.315 20.61C105.145 20.56 104.943 20.535 104.708 20.535C104.343 20.535 104.055 20.6125 103.845 20.7675C103.64 20.9225 103.538 21.125 103.538 21.375C103.538 21.54 103.59 21.68 103.695 21.795C103.805 21.905 103.948 22.0025 104.123 22.0875C104.303 22.1725 104.505 22.25 104.73 22.32C104.955 22.385 105.183 22.4575 105.413 22.5375C105.648 22.6175 105.878 22.71 106.103 22.815C106.328 22.915 106.528 23.045 106.703 23.205C106.883 23.36 107.025 23.5475 107.13 23.7675C107.24 23.9875 107.295 24.2525 107.295 24.5625C107.295 24.9325 107.228 25.275 107.093 25.59C106.963 25.9 106.768 26.17 106.508 26.4C106.248 26.625 105.925 26.8025 105.54 26.9325C105.16 27.0575 104.72 27.12 104.22 27.12C103.955 27.12 103.695 27.095 103.44 27.045C103.19 27 102.948 26.935 102.713 26.85C102.483 26.765 102.268 26.665 102.068 26.55C101.873 26.435 101.7 26.31 101.55 26.175L101.978 25.47C102.033 25.385 102.098 25.32 102.173 25.275C102.248 25.23 102.343 25.2075 102.458 25.2075C102.573 25.2075 102.68 25.24 102.78 25.305C102.885 25.37 103.005 25.44 103.14 25.515C103.275 25.59 103.433 25.66 103.613 25.725C103.798 25.79 104.03 25.8225 104.31 25.8225C104.53 25.8225 104.718 25.7975 104.873 25.7475C105.033 25.6925 105.163 25.6225 105.263 25.5375C105.368 25.4525 105.443 25.355 105.488 25.245C105.538 25.13 105.563 25.0125 105.563 24.8925C105.563 24.7125 105.508 24.565 105.398 24.45C105.293 24.335 105.15 24.235 104.97 24.15C104.795 24.065 104.593 23.99 104.363 23.925C104.138 23.855 103.905 23.78 103.665 23.7C103.43 23.62 103.198 23.5275 102.968 23.4225C102.743 23.3125 102.54 23.175 102.36 23.01C102.185 22.845 102.043 22.6425 101.933 22.4025C101.828 22.1625 101.775 21.8725 101.775 21.5325C101.775 21.2175 101.838 20.9175 101.963 20.6325C102.088 20.3475 102.27 20.1 102.51 19.89C102.755 19.675 103.058 19.505 103.418 19.38C103.783 19.25 104.203 19.185 104.678 19.185C105.208 19.185 105.69 19.2725 106.125 19.4475C106.56 19.6225 106.923 19.8525 107.213 20.1375L106.793 20.805ZM119.677 19.305L117.232 27H115.747C115.577 27 115.459 26.89 115.394 26.67L114.014 22.2225C113.969 22.0725 113.927 21.925 113.887 21.78C113.852 21.63 113.822 21.48 113.797 21.33C113.767 21.48 113.732 21.6325 113.692 21.7875C113.657 21.9375 113.617 22.0875 113.572 22.2375L112.169 26.67C112.109 26.89 111.977 27 111.772 27H110.347L107.909 19.305H109.387C109.522 19.305 109.637 19.3375 109.732 19.4025C109.827 19.4675 109.889 19.55 109.919 19.65L111.022 23.76C111.077 23.985 111.124 24.205 111.164 24.42C111.209 24.635 111.247 24.85 111.277 25.065C111.332 24.85 111.389 24.635 111.449 24.42C111.514 24.205 111.582 23.985 111.652 23.76L112.927 19.635C112.957 19.535 113.014 19.4525 113.099 19.3875C113.189 19.3225 113.297 19.29 113.422 19.29H114.239C114.369 19.29 114.479 19.3225 114.569 19.3875C114.664 19.4525 114.727 19.535 114.757 19.635L115.994 23.76C116.059 23.985 116.119 24.2075 116.174 24.4275C116.234 24.6425 116.292 24.8575 116.347 25.0725C116.412 24.6475 116.504 24.21 116.624 23.76L117.757 19.65C117.792 19.55 117.854 19.4675 117.944 19.4025C118.034 19.3375 118.142 19.305 118.267 19.305H119.677ZM124.004 19.185C124.574 19.185 125.091 19.2775 125.556 19.4625C126.026 19.6475 126.426 19.91 126.756 20.25C127.091 20.59 127.349 21.005 127.529 21.495C127.709 21.985 127.799 22.5325 127.799 23.1375C127.799 23.7475 127.709 24.2975 127.529 24.7875C127.349 25.2775 127.091 25.695 126.756 26.04C126.426 26.385 126.026 26.65 125.556 26.835C125.091 27.02 124.574 27.1125 124.004 27.1125C123.429 27.1125 122.906 27.02 122.436 26.835C121.966 26.65 121.564 26.385 121.229 26.04C120.899 25.695 120.641 25.2775 120.456 24.7875C120.276 24.2975 120.186 23.7475 120.186 23.1375C120.186 22.5325 120.276 21.985 120.456 21.495C120.641 21.005 120.899 20.59 121.229 20.25C121.564 19.91 121.966 19.6475 122.436 19.4625C122.906 19.2775 123.429 19.185 124.004 19.185ZM124.004 25.6875C124.644 25.6875 125.116 25.4725 125.421 25.0425C125.731 24.6125 125.886 23.9825 125.886 23.1525C125.886 22.3225 125.731 21.69 125.421 21.255C125.116 20.82 124.644 20.6025 124.004 20.6025C123.354 20.6025 122.871 20.8225 122.556 21.2625C122.246 21.6975 122.091 22.3275 122.091 23.1525C122.091 23.9775 122.246 24.6075 122.556 25.0425C122.871 25.4725 123.354 25.6875 124.004 25.6875ZM130.959 20.64C131.199 20.18 131.484 19.82 131.814 19.56C132.144 19.295 132.534 19.1625 132.984 19.1625C133.339 19.1625 133.624 19.24 133.839 19.395L133.719 20.7825C133.694 20.8725 133.657 20.9375 133.607 20.9775C133.562 21.0125 133.499 21.03 133.419 21.03C133.344 21.03 133.232 21.0175 133.082 20.9925C132.937 20.9675 132.794 20.955 132.654 20.955C132.449 20.955 132.267 20.985 132.107 21.045C131.947 21.105 131.802 21.1925 131.672 21.3075C131.547 21.4175 131.434 21.5525 131.334 21.7125C131.239 21.8725 131.149 22.055 131.064 22.26V27H129.212V19.305H130.299C130.489 19.305 130.622 19.34 130.697 19.41C130.772 19.475 130.822 19.595 130.847 19.77L130.959 20.64ZM139.433 21.27C139.223 21.015 138.993 20.835 138.743 20.73C138.498 20.625 138.233 20.5725 137.948 20.5725C137.668 20.5725 137.415 20.625 137.19 20.73C136.965 20.835 136.773 20.995 136.613 21.21C136.453 21.42 136.33 21.69 136.245 22.02C136.16 22.345 136.118 22.73 136.118 23.175C136.118 23.625 136.153 24.0075 136.223 24.3225C136.298 24.6325 136.403 24.8875 136.538 25.0875C136.673 25.2825 136.838 25.425 137.033 25.515C137.228 25.6 137.445 25.6425 137.685 25.6425C138.07 25.6425 138.398 25.5625 138.668 25.4025C138.938 25.2425 139.193 25.015 139.433 24.72V21.27ZM141.285 15.855V27H140.153C139.908 27 139.753 26.8875 139.688 26.6625L139.53 25.92C139.22 26.275 138.863 26.5625 138.458 26.7825C138.058 27.0025 137.59 27.1125 137.055 27.1125C136.635 27.1125 136.25 27.025 135.9 26.85C135.55 26.675 135.248 26.4225 134.993 26.0925C134.743 25.7575 134.548 25.345 134.408 24.855C134.273 24.365 134.205 23.805 134.205 23.175C134.205 22.605 134.283 22.075 134.438 21.585C134.593 21.095 134.815 20.67 135.105 20.31C135.395 19.95 135.743 19.67 136.148 19.47C136.553 19.265 137.008 19.1625 137.513 19.1625C137.943 19.1625 138.31 19.23 138.615 19.365C138.92 19.5 139.193 19.6825 139.433 19.9125V15.855H141.285Z" fill="#575758"/>
<defs>
<filter id="filter0_d" x="0" y="0" width="162" height="51" filterUnits="userSpaceOnUse" color-interpolation-filters="sRGB">
<feFlood flood-opacity="0" result="BackgroundImageFix"/>
<feColorMatrix in="SourceAlpha" type="matrix" values="0 0 0 0 0 0 0 0 0 0 0 0 0 0 0 0 0 0 127 0"/>
<feOffset dy="4"/>
<feGaussianBlur stdDeviation="2"/>
<feColorMatrix type="matrix" values="0 0 0 0 0 0 0 0 0 0 0 0 0 0 0 0 0 0 0.25 0"/>
<feBlend mode="normal" in2="BackgroundImageFix" result="effect1_dropShadow"/>
<feBlend mode="normal" in="SourceGraphic" in2="effect1_dropShadow" result="shape"/>
</filter>
</defs>
</svg>
