<svg width="207" height="61" viewBox="0 0 207 61" fill="none" xmlns="http://www.w3.org/2000/svg">
<path d="M84.0566 34.5693C84.0566 34.9157 83.9948 35.2373 83.8711 35.5342C83.7474 35.8311 83.5742 36.0908 83.3516 36.3135C83.1413 36.5238 82.8877 36.6908 82.5908 36.8145C82.2939 36.9382 81.9723 37 81.626 37H64.2217C63.7764 37 63.2939 36.9505 62.7744 36.8516C62.2673 36.7402 61.7601 36.5732 61.2529 36.3506C60.7581 36.1279 60.2819 35.8434 59.8242 35.4971C59.3665 35.1383 58.9583 34.7116 58.5996 34.2168C58.2533 33.7096 57.9749 33.1283 57.7646 32.4727C57.5544 31.8047 57.4492 31.0563 57.4492 30.2275V17.165C57.4492 16.7197 57.4987 16.2435 57.5977 15.7363C57.709 15.2168 57.876 14.7096 58.0986 14.2148C58.3213 13.7077 58.612 13.2253 58.9707 12.7676C59.3294 12.3099 59.7562 11.9079 60.251 11.5615C60.7581 11.2028 61.3395 10.9183 61.9951 10.708C62.6507 10.4977 63.3929 10.3926 64.2217 10.3926H83.834V15.2168H64.2217C63.5908 15.2168 63.1084 15.3838 62.7744 15.7178C62.4404 16.0518 62.2734 16.5465 62.2734 17.2021V30.2275C62.2734 30.846 62.4404 31.3285 62.7744 31.6748C63.1208 32.0088 63.6032 32.1758 64.2217 32.1758H79.2324V26.127H66.3926V21.2656H81.626C81.9723 21.2656 82.2939 21.3337 82.5908 21.4697C82.8877 21.5934 83.1413 21.7666 83.3516 21.9893C83.5742 22.2119 83.7474 22.4717 83.8711 22.7686C83.9948 23.0531 84.0566 23.3623 84.0566 23.6963V34.5693ZM110.367 30.2275C110.367 31.0563 110.262 31.8047 110.052 32.4727C109.841 33.1283 109.563 33.7096 109.217 34.2168C108.87 34.7116 108.468 35.1383 108.011 35.4971C107.553 35.8434 107.071 36.1279 106.563 36.3506C106.069 36.5732 105.562 36.7402 105.042 36.8516C104.535 36.9505 104.052 37 103.595 37H94.8926C94.2246 37 93.4948 36.8825 92.7031 36.6475C91.9115 36.4124 91.1755 36.029 90.4951 35.4971C89.8271 34.9528 89.2643 34.2539 88.8066 33.4004C88.3613 32.5345 88.1387 31.4769 88.1387 30.2275V23.6963C88.1387 22.4593 88.3613 21.4141 88.8066 20.5605C89.2643 19.6947 89.8271 18.9958 90.4951 18.4639C91.1755 17.9196 91.9115 17.5299 92.7031 17.2949C93.4948 17.0599 94.2246 16.9424 94.8926 16.9424H103.595C104.832 16.9424 105.883 17.165 106.749 17.6104C107.615 18.0557 108.314 18.6185 108.846 19.2988C109.378 19.9668 109.761 20.6966 109.996 21.4883C110.243 22.2799 110.367 23.016 110.367 23.6963V30.2275ZM105.543 23.7334C105.543 23.0654 105.376 22.5706 105.042 22.249C104.708 21.9274 104.226 21.7666 103.595 21.7666H94.9297C94.2865 21.7666 93.7979 21.9336 93.4639 22.2676C93.1299 22.5892 92.9629 23.0654 92.9629 23.6963V30.2275C92.9629 30.8584 93.1299 31.3408 93.4639 31.6748C93.7979 32.0088 94.2865 32.1758 94.9297 32.1758H103.595C104.25 32.1758 104.739 32.0088 105.061 31.6748C105.382 31.3408 105.543 30.8584 105.543 30.2275V23.7334ZM138.849 37H121.444C120.999 37 120.517 36.9505 119.997 36.8516C119.49 36.7402 118.983 36.5732 118.476 36.3506C117.981 36.1279 117.505 35.8434 117.047 35.4971C116.589 35.1383 116.181 34.7116 115.822 34.2168C115.476 33.7096 115.198 33.1283 114.987 32.4727C114.777 31.8047 114.672 31.0563 114.672 30.2275V17.165C114.672 16.7197 114.721 16.2435 114.82 15.7363C114.932 15.2168 115.099 14.7096 115.321 14.2148C115.544 13.7077 115.835 13.2253 116.193 12.7676C116.552 12.3099 116.979 11.9079 117.474 11.5615C117.981 11.2028 118.562 10.9183 119.218 10.708C119.873 10.4977 120.616 10.3926 121.444 10.3926H138.849V15.2168H121.444C120.813 15.2168 120.331 15.3838 119.997 15.7178C119.663 16.0518 119.496 16.5465 119.496 17.2021V30.2275C119.496 30.846 119.663 31.3285 119.997 31.6748C120.343 32.0088 120.826 32.1758 121.444 32.1758H138.849V37ZM163.471 30.3574C163.471 31.0254 163.353 31.749 163.118 32.5283C162.883 33.2952 162.5 34.0127 161.968 34.6807C161.448 35.3363 160.762 35.8867 159.908 36.332C159.067 36.7773 158.04 37 156.828 37H148.126C147.458 37 146.734 36.8825 145.955 36.6475C145.188 36.4124 144.471 36.0352 143.803 35.5156C143.147 34.9837 142.597 34.2972 142.151 33.4561C141.706 32.6025 141.483 31.5697 141.483 30.3574C141.483 29.6895 141.601 28.9658 141.836 28.1865C142.071 27.4072 142.448 26.6898 142.968 26.0342C143.5 25.3662 144.186 24.8096 145.027 24.3643C145.881 23.9189 146.914 23.6963 148.126 23.6963H156.828V28.2979H148.126C147.47 28.2979 146.963 28.502 146.604 28.9102C146.246 29.306 146.066 29.8008 146.066 30.3945C146.066 31.0254 146.271 31.5202 146.679 31.8789C147.099 32.2253 147.594 32.3984 148.163 32.3984H156.828C157.484 32.3984 157.991 32.2005 158.35 31.8047C158.708 31.4089 158.888 30.9141 158.888 30.3203V23.585C158.888 22.9541 158.69 22.4531 158.294 22.082C157.91 21.7109 157.422 21.5254 156.828 21.5254H146.233V16.9424H156.828C157.496 16.9424 158.214 17.0599 158.98 17.2949C159.76 17.5299 160.477 17.9134 161.133 18.4453C161.801 18.9648 162.357 19.6514 162.803 20.5049C163.248 21.346 163.471 22.3727 163.471 23.585V30.3574ZM185.143 21.7666H174.288C173.632 21.7666 173.138 21.9336 172.804 22.2676C172.47 22.5892 172.303 23.0654 172.303 23.6963V37H167.479V23.6963C167.479 22.8675 167.584 22.1253 167.794 21.4697C168.004 20.8141 168.283 20.2389 168.629 19.7441C168.988 19.237 169.396 18.8102 169.854 18.4639C170.311 18.1051 170.787 17.8145 171.282 17.5918C171.789 17.3691 172.297 17.2083 172.804 17.1094C173.323 16.998 173.806 16.9424 174.251 16.9424H185.143V21.7666Z" fill="#54428E"/>
<path d="M132.693 54H130.408V50.9062H122.375V54H120.09V47.6982C120.09 46.7783 120.248 45.9316 120.564 45.1582C120.881 44.3848 121.32 43.7197 121.883 43.1631C122.445 42.6064 123.11 42.1729 123.878 41.8623C124.646 41.5518 125.483 41.3965 126.392 41.3965H131.542C131.7 41.3965 131.85 41.4258 131.99 41.4844C132.131 41.543 132.254 41.625 132.359 41.7305C132.465 41.8359 132.547 41.959 132.605 42.0996C132.664 42.2402 132.693 42.3896 132.693 42.5479V54ZM122.375 48.6211H130.408V43.6816H126.392C126.321 43.6816 126.172 43.6934 125.943 43.7168C125.721 43.7344 125.46 43.7842 125.161 43.8662C124.868 43.9482 124.558 44.0742 124.229 44.2441C123.901 44.4141 123.6 44.6484 123.324 44.9473C123.049 45.2461 122.82 45.6211 122.639 46.0723C122.463 46.5176 122.375 47.0596 122.375 47.6982V48.6211ZM145.473 50.792C145.473 51.1846 145.423 51.5391 145.323 51.8555C145.224 52.166 145.092 52.4414 144.928 52.6816C144.764 52.916 144.573 53.1182 144.356 53.2881C144.14 53.4521 143.911 53.5869 143.671 53.6924C143.437 53.7979 143.196 53.877 142.95 53.9297C142.71 53.9766 142.481 54 142.265 54H138.143C137.75 54 137.398 53.9502 137.088 53.8506C136.777 53.751 136.502 53.6191 136.262 53.4551C136.027 53.2852 135.825 53.0918 135.655 52.875C135.491 52.6582 135.356 52.4326 135.251 52.1982C135.146 51.958 135.066 51.7178 135.014 51.4775C134.967 51.2314 134.943 51.0029 134.943 50.792V47.6982C134.943 47.1123 135.049 46.6172 135.26 46.2129C135.477 45.8027 135.743 45.4717 136.06 45.2197C136.382 44.9619 136.73 44.7773 137.105 44.666C137.48 44.5547 137.826 44.499 138.143 44.499H142.265V46.7842H138.16C137.855 46.7842 137.624 46.8633 137.466 47.0215C137.308 47.1738 137.229 47.3994 137.229 47.6982V50.7744C137.229 51.085 137.305 51.3193 137.457 51.4775C137.615 51.6357 137.844 51.7148 138.143 51.7148H142.265C142.575 51.7148 142.807 51.6357 142.959 51.4775C143.111 51.3193 143.188 51.0908 143.188 50.792V40.4824H145.473V50.792ZM156.134 54H153.849V47.6982C153.849 47.3994 153.77 47.1738 153.611 47.0215C153.453 46.8633 153.219 46.7842 152.908 46.7842H149.938V54H147.652V45.6328C147.652 45.4746 147.682 45.3281 147.74 45.1934C147.799 45.0527 147.881 44.9326 147.986 44.833C148.092 44.7275 148.215 44.6455 148.355 44.5869C148.496 44.5283 148.646 44.499 148.804 44.499H152.926C153.242 44.499 153.582 44.5547 153.945 44.666C154.309 44.7773 154.654 44.9561 154.982 45.2021V44.499H158.076C158.293 44.499 158.521 44.5254 158.762 44.5781C159.002 44.625 159.239 44.7012 159.474 44.8066C159.714 44.9121 159.942 45.0498 160.159 45.2197C160.376 45.3838 160.566 45.5859 160.73 45.8262C160.895 46.0605 161.026 46.333 161.126 46.6436C161.226 46.9541 161.275 47.3057 161.275 47.6982V54H158.99V47.6982C158.99 47.3994 158.914 47.1738 158.762 47.0215C158.615 46.8633 158.387 46.7842 158.076 46.7842H156.02C156.096 47.0654 156.134 47.3701 156.134 47.6982V54ZM165.705 42.5479H163.42V40.4824H165.705V42.5479ZM165.705 54H163.42V44.499H165.705V54ZM178.432 54H176.146V48.7266C176.146 48.4277 176.094 48.1611 175.988 47.9268C175.889 47.6865 175.751 47.4814 175.575 47.3115C175.399 47.1416 175.191 47.0127 174.951 46.9248C174.717 46.8311 174.462 46.7842 174.187 46.7842H170.188V54H167.902V45.6328C167.902 45.4746 167.932 45.3281 167.99 45.1934C168.049 45.0527 168.131 44.9326 168.236 44.833C168.342 44.7275 168.465 44.6455 168.605 44.5869C168.746 44.5283 168.896 44.499 169.054 44.499H174.204C174.491 44.499 174.793 44.5312 175.109 44.5957C175.432 44.6602 175.748 44.7656 176.059 44.9121C176.375 45.0527 176.674 45.2344 176.955 45.457C177.242 45.6738 177.494 45.9404 177.711 46.2568C177.934 46.5674 178.109 46.9277 178.238 47.3379C178.367 47.748 178.432 48.2109 178.432 48.7266V54Z" fill="black"/>
<path d="M38.7689 22.5824C38.7689 6.03828 9.95695 5.57505 9.95695 22.5824C9.95695 22.5824 9.96378 39.647 24.2726 47.9853C38.6444 39.5865 38.7689 22.5824 38.7689 22.5824Z" stroke="#54428E" stroke-width="1.56213"/>
<g filter="url(#filter0_d)">
<path d="M11.6983 32.7647C11.6983 32.7647 -0.432961 33.8025 2.44022 38.5031C5.31341 43.2036 17.1321 42.4018 17.1321 42.4018M29.6465 43.8824C28.7526 43.8824 54.2304 44.1149 44.9701 50.0326C35.7097 55.9503 11.6983 58.1518 4.41953 47.66" stroke="#54428E" stroke-width="1.56213"/>
</g>
<mask id="path-5-inside-1" fill="white">
<ellipse cx="21.2943" cy="27.3382" rx="1.16543" ry="1.19118"/>
</mask>
<path d="M21.2881 27.3382C21.2881 27.3429 21.2877 27.3461 21.2872 27.3483C21.2868 27.3505 21.2862 27.3524 21.2856 27.3539C21.2842 27.3572 21.2824 27.3596 21.2809 27.3612C21.2794 27.3627 21.2797 27.3618 21.283 27.3604C21.2847 27.3596 21.2869 27.3589 21.2893 27.3584C21.2918 27.3579 21.2936 27.3578 21.2943 27.3578V29.701C22.609 29.701 23.6313 28.6189 23.6313 27.3382H21.2881ZM21.2943 27.3578C21.2949 27.3578 21.2968 27.3579 21.2992 27.3584C21.3017 27.3589 21.3038 27.3596 21.3055 27.3604C21.3089 27.3618 21.3091 27.3627 21.3076 27.3612C21.3062 27.3596 21.3043 27.3572 21.303 27.3539C21.3024 27.3524 21.3018 27.3505 21.3013 27.3483C21.3009 27.3461 21.3004 27.3429 21.3004 27.3382H18.9572C18.9572 28.6189 19.9796 29.701 21.2943 29.701V27.3578ZM21.3004 27.3382C21.3004 27.3336 21.3009 27.3303 21.3013 27.3282C21.3018 27.3259 21.3024 27.3241 21.303 27.3226C21.3043 27.3193 21.3062 27.3168 21.3076 27.3153C21.3091 27.3138 21.3089 27.3146 21.3055 27.3161C21.3038 27.3168 21.3017 27.3175 21.2992 27.318C21.2968 27.3186 21.2949 27.3186 21.2943 27.3186V24.9754C19.9796 24.9754 18.9572 26.0576 18.9572 27.3382H21.3004ZM21.2943 27.3186C21.2936 27.3186 21.2918 27.3186 21.2893 27.318C21.2869 27.3175 21.2847 27.3168 21.283 27.3161C21.2797 27.3146 21.2794 27.3138 21.2809 27.3153C21.2824 27.3168 21.2842 27.3193 21.2856 27.3226C21.2862 27.3241 21.2868 27.3259 21.2872 27.3282C21.2877 27.3303 21.2881 27.3336 21.2881 27.3382H23.6313C23.6313 26.0576 22.609 24.9754 21.2943 24.9754V27.3186Z" fill="#54428E" mask="url(#path-5-inside-1)"/>
<mask id="path-7-inside-2" fill="white">
<ellipse cx="27.5099" cy="27.3382" rx="1.16543" ry="1.19118"/>
</mask>
<path d="M27.5037 27.3382C27.5037 27.3429 27.5033 27.3461 27.5029 27.3483C27.5024 27.3505 27.5018 27.3524 27.5012 27.3539C27.4998 27.3572 27.498 27.3596 27.4965 27.3612C27.4951 27.3627 27.4953 27.3618 27.4986 27.3604C27.5004 27.3596 27.5025 27.3589 27.5049 27.3584C27.5074 27.3579 27.5092 27.3578 27.5099 27.3578V29.701C28.8246 29.701 29.8469 28.6189 29.8469 27.3382H27.5037ZM27.5099 27.3578C27.5106 27.3578 27.5124 27.3579 27.5149 27.3584C27.5173 27.3589 27.5195 27.3596 27.5212 27.3604C27.5245 27.3618 27.5247 27.3627 27.5233 27.3612C27.5218 27.3596 27.52 27.3572 27.5186 27.3539C27.518 27.3524 27.5174 27.3505 27.517 27.3483C27.5165 27.3461 27.5161 27.3429 27.5161 27.3382H25.1729C25.1729 28.6189 26.1952 29.701 27.5099 29.701V27.3578ZM27.5161 27.3382C27.5161 27.3336 27.5165 27.3303 27.517 27.3282C27.5174 27.3259 27.518 27.3241 27.5186 27.3226C27.52 27.3193 27.5218 27.3168 27.5233 27.3153C27.5247 27.3138 27.5245 27.3146 27.5212 27.3161C27.5195 27.3168 27.5173 27.3175 27.5149 27.318C27.5124 27.3186 27.5106 27.3186 27.5099 27.3186V24.9754C26.1952 24.9754 25.1729 26.0576 25.1729 27.3382H27.5161ZM27.5099 27.3186C27.5092 27.3186 27.5074 27.3186 27.5049 27.318C27.5025 27.3175 27.5004 27.3168 27.4986 27.3161C27.4953 27.3146 27.4951 27.3138 27.4965 27.3153C27.498 27.3168 27.4998 27.3193 27.5012 27.3226C27.5018 27.3241 27.5024 27.3259 27.5029 27.3282C27.5033 27.3303 27.5037 27.3336 27.5037 27.3382H29.8469C29.8469 26.0576 28.8246 24.9754 27.5099 24.9754V27.3186Z" fill="#54428E" mask="url(#path-7-inside-2)"/>
<path d="M33.7152 25.2206C33.7152 30.3528 29.5482 34.5179 24.4021 34.5179C19.256 34.5179 15.089 30.3528 15.089 25.2206C15.089 20.0884 19.256 15.9232 24.4021 15.9232C29.5482 15.9232 33.7152 20.0884 33.7152 25.2206Z" stroke="#54428E" stroke-width="3.90533"/>
<line x1="21.9407" y1="27.1478" x2="26.3434" y2="27.1478" stroke="#54428E" stroke-width="0.976331"/>
<path d="M28.6753 27.4069C29.3876 27.4069 30.6109 27.4069 31.0641 27.4069C31.8213 25.8364 31.7503 25.3973 31.0641 23.9632C30.6596 23.9632 30.0511 23.9632 29.6465 23.9632C26.8915 17.2064 20.9158 20.8529 21.4885 24.1618C21.5364 24.4382 19.9994 23.6348 18.7692 24.8897C17.539 26.1446 19.0214 27.4069 19.0214 27.4069C19.0214 27.4069 20.2036 27.4069 20.9158 27.4069" stroke="#54428E" stroke-width="0.781065"/>
<defs>
<filter id="filter0_d" x="0.828332" y="31.9865" width="48.1243" height="27.3093" filterUnits="userSpaceOnUse" color-interpolation-filters="sRGB">
<feFlood flood-opacity="0" result="BackgroundImageFix"/>
<feColorMatrix in="SourceAlpha" type="matrix" values="0 0 0 0 0 0 0 0 0 0 0 0 0 0 0 0 0 0 127 0"/>
<feOffset dx="0.390533" dy="2.73373"/>
<feGaussianBlur stdDeviation="0.390533"/>
<feColorMatrix type="matrix" values="0 0 0 0 0 0 0 0 0 0 0 0 0 0 0 0 0 0 0.38 0"/>
<feBlend mode="normal" in2="BackgroundImageFix" result="effect1_dropShadow"/>
<feBlend mode="normal" in="SourceGraphic" in2="effect1_dropShadow" result="shape"/>
</filter>
</defs>
</svg>
