<svg width="40" height="40" viewBox="0 0 40 40" fill="none" xmlns="http://www.w3.org/2000/svg">
<path d="M31.5333 8.35002C31.2 7.36669 30.2667 6.66669 29.1667 6.66669H10.8333C9.73333 6.66669 8.81667 7.36669 8.46667 8.35002L5 18.3334V31.6667C5 32.5834 5.75 33.3334 6.66667 33.3334H8.33333C9.25 33.3334 10 32.5834 10 31.6667V30H30V31.6667C30 32.5834 30.75 33.3334 31.6667 33.3334H33.3333C34.25 33.3334 35 32.5834 35 31.6667V18.3334L31.5333 8.35002ZM11.4167 10H28.5667L30.3 15H9.68333L11.4167 10ZM31.6667 26.6667H8.33333V18.9L8.53333 18.3334H31.4833L31.6667 18.9V26.6667Z" fill="#575758"/>
<path d="M12.5 25C13.8807 25 15 23.8807 15 22.5C15 21.1193 13.8807 20 12.5 20C11.1193 20 10 21.1193 10 22.5C10 23.8807 11.1193 25 12.5 25Z" fill="#575758"/>
<path d="M27.5 25C28.8807 25 30 23.8807 30 22.5C30 21.1193 28.8807 20 27.5 20C26.1193 20 25 21.1193 25 22.5C25 23.8807 26.1193 25 27.5 25Z" fill="#575758"/>
</svg>
