<svg width="168" height="130" viewBox="0 0 168 130" fill="none" xmlns="http://www.w3.org/2000/svg">
<path d="M120.693 123H118.408V119.906H110.375V123H108.09V116.698C108.09 115.778 108.248 114.932 108.564 114.158C108.881 113.385 109.32 112.72 109.883 112.163C110.445 111.606 111.11 111.173 111.878 110.862C112.646 110.552 113.483 110.396 114.392 110.396H119.542C119.7 110.396 119.85 110.426 119.99 110.484C120.131 110.543 120.254 110.625 120.359 110.73C120.465 110.836 120.547 110.959 120.605 111.1C120.664 111.24 120.693 111.39 120.693 111.548V123ZM110.375 117.621H118.408V112.682H114.392C114.321 112.682 114.172 112.693 113.943 112.717C113.721 112.734 113.46 112.784 113.161 112.866C112.868 112.948 112.558 113.074 112.229 113.244C111.901 113.414 111.6 113.648 111.324 113.947C111.049 114.246 110.82 114.621 110.639 115.072C110.463 115.518 110.375 116.06 110.375 116.698V117.621ZM133.473 119.792C133.473 120.185 133.423 120.539 133.323 120.855C133.224 121.166 133.092 121.441 132.928 121.682C132.764 121.916 132.573 122.118 132.356 122.288C132.14 122.452 131.911 122.587 131.671 122.692C131.437 122.798 131.196 122.877 130.95 122.93C130.71 122.977 130.481 123 130.265 123H126.143C125.75 123 125.398 122.95 125.088 122.851C124.777 122.751 124.502 122.619 124.262 122.455C124.027 122.285 123.825 122.092 123.655 121.875C123.491 121.658 123.356 121.433 123.251 121.198C123.146 120.958 123.066 120.718 123.014 120.478C122.967 120.231 122.943 120.003 122.943 119.792V116.698C122.943 116.112 123.049 115.617 123.26 115.213C123.477 114.803 123.743 114.472 124.06 114.22C124.382 113.962 124.73 113.777 125.105 113.666C125.48 113.555 125.826 113.499 126.143 113.499H130.265V115.784H126.16C125.855 115.784 125.624 115.863 125.466 116.021C125.308 116.174 125.229 116.399 125.229 116.698V119.774C125.229 120.085 125.305 120.319 125.457 120.478C125.615 120.636 125.844 120.715 126.143 120.715H130.265C130.575 120.715 130.807 120.636 130.959 120.478C131.111 120.319 131.188 120.091 131.188 119.792V109.482H133.473V119.792ZM144.134 123H141.849V116.698C141.849 116.399 141.77 116.174 141.611 116.021C141.453 115.863 141.219 115.784 140.908 115.784H137.938V123H135.652V114.633C135.652 114.475 135.682 114.328 135.74 114.193C135.799 114.053 135.881 113.933 135.986 113.833C136.092 113.728 136.215 113.646 136.355 113.587C136.496 113.528 136.646 113.499 136.804 113.499H140.926C141.242 113.499 141.582 113.555 141.945 113.666C142.309 113.777 142.654 113.956 142.982 114.202V113.499H146.076C146.293 113.499 146.521 113.525 146.762 113.578C147.002 113.625 147.239 113.701 147.474 113.807C147.714 113.912 147.942 114.05 148.159 114.22C148.376 114.384 148.566 114.586 148.73 114.826C148.895 115.061 149.026 115.333 149.126 115.644C149.226 115.954 149.275 116.306 149.275 116.698V123H146.99V116.698C146.99 116.399 146.914 116.174 146.762 116.021C146.615 115.863 146.387 115.784 146.076 115.784H144.02C144.096 116.065 144.134 116.37 144.134 116.698V123ZM153.705 111.548H151.42V109.482H153.705V111.548ZM153.705 123H151.42V113.499H153.705V123ZM166.432 123H164.146V117.727C164.146 117.428 164.094 117.161 163.988 116.927C163.889 116.687 163.751 116.481 163.575 116.312C163.399 116.142 163.191 116.013 162.951 115.925C162.717 115.831 162.462 115.784 162.187 115.784H158.188V123H155.902V114.633C155.902 114.475 155.932 114.328 155.99 114.193C156.049 114.053 156.131 113.933 156.236 113.833C156.342 113.728 156.465 113.646 156.605 113.587C156.746 113.528 156.896 113.499 157.054 113.499H162.204C162.491 113.499 162.793 113.531 163.109 113.596C163.432 113.66 163.748 113.766 164.059 113.912C164.375 114.053 164.674 114.234 164.955 114.457C165.242 114.674 165.494 114.94 165.711 115.257C165.934 115.567 166.109 115.928 166.238 116.338C166.367 116.748 166.432 117.211 166.432 117.727V123Z" fill="black"/>
<path d="M85.9277 19.0552C85.9277 -4.68495 43.6702 -5.34967 43.6702 19.0552C43.6702 19.0552 43.6802 43.5424 64.6665 55.5074C85.745 43.4555 85.9277 19.0552 85.9277 19.0552Z" stroke="#54428E" stroke-width="1.56213"/>
<g filter="url(#filter0_d)">
<path d="M46.2241 33.6665C46.2241 33.6665 28.4317 35.1557 32.6457 41.9008C36.8597 48.6459 54.1938 47.4954 54.1938 47.4954M72.5482 49.6199C71.2372 49.6199 108.605 49.9536 95.0228 58.4453C81.4409 66.9369 46.2241 70.0959 35.5486 55.0406" stroke="#54428E" stroke-width="1.56213"/>
</g>
<circle cx="60.2983" cy="25.8797" r="1.12349" stroke="#54428E" stroke-width="1.1716"/>
<circle cx="69.4145" cy="25.8797" r="1.12349" stroke="#54428E" stroke-width="1.1716"/>
<path d="M79.4269 22.841C79.4269 30.6357 72.9466 37.0316 64.8564 37.0316C56.7663 37.0316 50.2859 30.6357 50.2859 22.841C50.2859 15.0462 56.7663 8.65029 64.8564 8.65029C72.9466 8.65029 79.4269 15.0462 79.4269 22.841Z" stroke="#54428E" stroke-width="3.90533"/>
<line x1="61.2463" y1="25.8189" x2="67.7037" y2="25.8189" stroke="#54428E" stroke-width="0.976331"/>
<path d="M71.1238 25.9782C72.1684 25.9782 73.9627 25.9782 74.6274 25.9782C75.7378 23.7246 75.6338 23.0945 74.6274 21.0367C74.034 21.0367 73.1416 21.0367 72.5483 21.0367C68.5076 11.3409 59.7432 16.5735 60.5832 21.3216C60.6534 21.7183 58.3991 20.5654 56.5948 22.3661C54.7906 24.1669 56.9647 25.9782 56.9647 25.9782C56.9647 25.9782 58.6986 25.9782 59.7432 25.9782" stroke="#54428E" stroke-width="0.781065"/>
<path d="M30.5859 103.441C30.5859 103.806 30.5208 104.145 30.3906 104.457C30.2604 104.77 30.0781 105.043 29.8438 105.277C29.6224 105.499 29.3555 105.674 29.043 105.805C28.7305 105.935 28.3919 106 28.0273 106H9.70703C9.23828 106 8.73047 105.948 8.18359 105.844C7.64974 105.727 7.11589 105.551 6.58203 105.316C6.0612 105.082 5.5599 104.783 5.07812 104.418C4.59635 104.04 4.16667 103.591 3.78906 103.07C3.42448 102.536 3.13151 101.924 2.91016 101.234C2.6888 100.531 2.57812 99.7435 2.57812 98.8711V85.1211C2.57812 84.6523 2.63021 84.151 2.73438 83.6172C2.85156 83.0703 3.02734 82.5365 3.26172 82.0156C3.49609 81.4818 3.80208 80.974 4.17969 80.4922C4.55729 80.0104 5.00651 79.5872 5.52734 79.2227C6.0612 78.8451 6.67318 78.5456 7.36328 78.3242C8.05339 78.1029 8.83464 77.9922 9.70703 77.9922H30.3516V83.0703H9.70703C9.04297 83.0703 8.53516 83.2461 8.18359 83.5977C7.83203 83.9492 7.65625 84.4701 7.65625 85.1602V98.8711C7.65625 99.5221 7.83203 100.03 8.18359 100.395C8.54818 100.746 9.05599 100.922 9.70703 100.922H25.5078V94.5547H11.9922V89.4375H28.0273C28.3919 89.4375 28.7305 89.5091 29.043 89.6523C29.3555 89.7826 29.6224 89.9648 29.8438 90.1992C30.0781 90.4336 30.2604 90.707 30.3906 91.0195C30.5208 91.319 30.5859 91.6445 30.5859 91.9961V103.441ZM58.2812 98.8711C58.2812 99.7435 58.1706 100.531 57.9492 101.234C57.7279 101.924 57.4349 102.536 57.0703 103.07C56.7057 103.591 56.2826 104.04 55.8008 104.418C55.319 104.783 54.8112 105.082 54.2773 105.316C53.7565 105.551 53.2227 105.727 52.6758 105.844C52.1419 105.948 51.6341 106 51.1523 106H41.9922C41.2891 106 40.5208 105.876 39.6875 105.629C38.8542 105.382 38.0794 104.978 37.3633 104.418C36.6602 103.845 36.0677 103.109 35.5859 102.211C35.1172 101.299 34.8828 100.186 34.8828 98.8711V91.9961C34.8828 90.694 35.1172 89.5938 35.5859 88.6953C36.0677 87.7839 36.6602 87.0482 37.3633 86.4883C38.0794 85.9154 38.8542 85.5052 39.6875 85.2578C40.5208 85.0104 41.2891 84.8867 41.9922 84.8867H51.1523C52.4544 84.8867 53.5612 85.1211 54.4727 85.5898C55.3841 86.0586 56.1198 86.651 56.6797 87.3672C57.2396 88.0703 57.6432 88.8385 57.8906 89.6719C58.151 90.5052 58.2812 91.2799 58.2812 91.9961V98.8711ZM53.2031 92.0352C53.2031 91.332 53.0273 90.8112 52.6758 90.4727C52.3242 90.1341 51.8164 89.9648 51.1523 89.9648H42.0312C41.3542 89.9648 40.8398 90.1406 40.4883 90.4922C40.1367 90.8307 39.9609 91.332 39.9609 91.9961V98.8711C39.9609 99.5352 40.1367 100.043 40.4883 100.395C40.8398 100.746 41.3542 100.922 42.0312 100.922H51.1523C51.8424 100.922 52.3568 100.746 52.6953 100.395C53.0339 100.043 53.2031 99.5352 53.2031 98.8711V92.0352ZM88.2617 106H69.9414C69.4727 106 68.9648 105.948 68.418 105.844C67.8841 105.727 67.3503 105.551 66.8164 105.316C66.2956 105.082 65.7943 104.783 65.3125 104.418C64.8307 104.04 64.401 103.591 64.0234 103.07C63.6589 102.536 63.3659 101.924 63.1445 101.234C62.9232 100.531 62.8125 99.7435 62.8125 98.8711V85.1211C62.8125 84.6523 62.8646 84.151 62.9688 83.6172C63.0859 83.0703 63.2617 82.5365 63.4961 82.0156C63.7305 81.4818 64.0365 80.974 64.4141 80.4922C64.7917 80.0104 65.2409 79.5872 65.7617 79.2227C66.2956 78.8451 66.9076 78.5456 67.5977 78.3242C68.2878 78.1029 69.069 77.9922 69.9414 77.9922H88.2617V83.0703H69.9414C69.2773 83.0703 68.7695 83.2461 68.418 83.5977C68.0664 83.9492 67.8906 84.4701 67.8906 85.1602V98.8711C67.8906 99.5221 68.0664 100.03 68.418 100.395C68.7826 100.746 69.2904 100.922 69.9414 100.922H88.2617V106ZM114.18 99.0078C114.18 99.7109 114.056 100.473 113.809 101.293C113.561 102.1 113.158 102.855 112.598 103.559C112.051 104.249 111.328 104.828 110.43 105.297C109.544 105.766 108.464 106 107.188 106H98.0273C97.3242 106 96.5625 105.876 95.7422 105.629C94.9349 105.382 94.1797 104.984 93.4766 104.438C92.7865 103.878 92.207 103.155 91.7383 102.27C91.2695 101.371 91.0352 100.284 91.0352 99.0078C91.0352 98.3047 91.1589 97.543 91.4062 96.7227C91.6536 95.9023 92.0508 95.1471 92.5977 94.457C93.1576 93.7539 93.8802 93.168 94.7656 92.6992C95.6641 92.2305 96.7513 91.9961 98.0273 91.9961H107.188V96.8398H98.0273C97.3372 96.8398 96.8034 97.0547 96.4258 97.4844C96.0482 97.901 95.8594 98.4219 95.8594 99.0469C95.8594 99.7109 96.0742 100.232 96.5039 100.609C96.9466 100.974 97.4674 101.156 98.0664 101.156H107.188C107.878 101.156 108.411 100.948 108.789 100.531C109.167 100.115 109.355 99.5938 109.355 98.9688V91.8789C109.355 91.2148 109.147 90.6875 108.73 90.2969C108.327 89.9062 107.812 89.7109 107.188 89.7109H96.0352V84.8867H107.188C107.891 84.8867 108.646 85.0104 109.453 85.2578C110.273 85.5052 111.029 85.9089 111.719 86.4688C112.422 87.0156 113.008 87.7383 113.477 88.6367C113.945 89.5221 114.18 90.6029 114.18 91.8789V99.0078ZM136.992 89.9648H125.566C124.876 89.9648 124.355 90.1406 124.004 90.4922C123.652 90.8307 123.477 91.332 123.477 91.9961V106H118.398V91.9961C118.398 91.1237 118.509 90.3424 118.73 89.6523C118.952 88.9622 119.245 88.3568 119.609 87.8359C119.987 87.3021 120.417 86.8529 120.898 86.4883C121.38 86.1107 121.882 85.8047 122.402 85.5703C122.936 85.3359 123.47 85.1667 124.004 85.0625C124.551 84.9453 125.059 84.8867 125.527 84.8867H136.992V89.9648Z" fill="#54428E"/>
<defs>
<filter id="filter0_d" x="30.8283" y="32.8882" width="69.1243" height="36.981" filterUnits="userSpaceOnUse" color-interpolation-filters="sRGB">
<feFlood flood-opacity="0" result="BackgroundImageFix"/>
<feColorMatrix in="SourceAlpha" type="matrix" values="0 0 0 0 0 0 0 0 0 0 0 0 0 0 0 0 0 0 127 0"/>
<feOffset dx="0.390533" dy="2.73373"/>
<feGaussianBlur stdDeviation="0.390533"/>
<feColorMatrix type="matrix" values="0 0 0 0 0 0 0 0 0 0 0 0 0 0 0 0 0 0 0.38 0"/>
<feBlend mode="normal" in2="BackgroundImageFix" result="effect1_dropShadow"/>
<feBlend mode="normal" in="SourceGraphic" in2="effect1_dropShadow" result="shape"/>
</filter>
</defs>
</svg>
