<svg width="49" height="51" viewBox="0 0 49 51" fill="none" xmlns="http://www.w3.org/2000/svg">
<path d="M38.7689 13.5824C38.7689 -2.96172 9.95697 -3.42495 9.95697 13.5824C9.95697 13.5824 9.9638 30.647 24.2726 38.9853C38.6444 30.5865 38.7689 13.5824 38.7689 13.5824Z" stroke="#54428E" stroke-width="1.56213"/>
<g filter="url(#filter0_d)">
<path d="M11.6983 23.7647C11.6983 23.7647 -0.432961 24.8025 2.44022 29.5031C5.31341 34.2036 17.1321 33.4018 17.1321 33.4018M29.6465 34.8824C28.7526 34.8824 54.2304 35.1149 44.9701 41.0326C35.7097 46.9503 11.6983 49.1517 4.41953 38.66" stroke="#54428E" stroke-width="1.56213"/>
</g>
<mask id="path-3-inside-1" fill="white">
<ellipse cx="21.2943" cy="18.3382" rx="1.16543" ry="1.19118"/>
</mask>
<path d="M21.2881 18.3382C21.2881 18.3428 21.2877 18.3461 21.2872 18.3483C21.2868 18.3505 21.2862 18.3523 21.2856 18.3539C21.2842 18.3571 21.2824 18.3596 21.2809 18.3612C21.2794 18.3627 21.2797 18.3618 21.283 18.3604C21.2847 18.3596 21.2869 18.3589 21.2893 18.3584C21.2918 18.3579 21.2936 18.3578 21.2943 18.3578V20.701C22.609 20.701 23.6313 19.6189 23.6313 18.3382H21.2881ZM21.2943 18.3578C21.2949 18.3578 21.2968 18.3579 21.2992 18.3584C21.3017 18.3589 21.3038 18.3596 21.3055 18.3604C21.3089 18.3618 21.3091 18.3627 21.3076 18.3612C21.3062 18.3596 21.3043 18.3571 21.303 18.3539C21.3024 18.3523 21.3018 18.3505 21.3013 18.3483C21.3009 18.3461 21.3004 18.3428 21.3004 18.3382H18.9572C18.9572 19.6189 19.9796 20.701 21.2943 20.701V18.3578ZM21.3004 18.3382C21.3004 18.3336 21.3009 18.3303 21.3013 18.3281C21.3018 18.3259 21.3024 18.3241 21.303 18.3225C21.3043 18.3193 21.3062 18.3168 21.3076 18.3153C21.3091 18.3138 21.3089 18.3146 21.3055 18.316C21.3038 18.3168 21.3017 18.3175 21.2992 18.318C21.2968 18.3185 21.2949 18.3186 21.2943 18.3186V15.9754C19.9796 15.9754 18.9572 17.0576 18.9572 18.3382H21.3004ZM21.2943 18.3186C21.2936 18.3186 21.2918 18.3185 21.2893 18.318C21.2869 18.3175 21.2847 18.3168 21.283 18.316C21.2797 18.3146 21.2794 18.3138 21.2809 18.3153C21.2824 18.3168 21.2842 18.3193 21.2856 18.3225C21.2862 18.3241 21.2868 18.3259 21.2872 18.3281C21.2877 18.3303 21.2881 18.3336 21.2881 18.3382H23.6313C23.6313 17.0576 22.609 15.9754 21.2943 15.9754V18.3186Z" fill="#54428E" mask="url(#path-3-inside-1)"/>
<mask id="path-5-inside-2" fill="white">
<ellipse cx="27.5099" cy="18.3382" rx="1.16543" ry="1.19118"/>
</mask>
<path d="M27.5037 18.3382C27.5037 18.3428 27.5033 18.3461 27.5029 18.3483C27.5024 18.3505 27.5018 18.3523 27.5012 18.3539C27.4998 18.3571 27.498 18.3596 27.4965 18.3612C27.4951 18.3627 27.4953 18.3618 27.4986 18.3604C27.5004 18.3596 27.5025 18.3589 27.5049 18.3584C27.5074 18.3579 27.5092 18.3578 27.5099 18.3578V20.701C28.8246 20.701 29.8469 19.6189 29.8469 18.3382H27.5037ZM27.5099 18.3578C27.5106 18.3578 27.5124 18.3579 27.5149 18.3584C27.5173 18.3589 27.5195 18.3596 27.5212 18.3604C27.5245 18.3618 27.5247 18.3627 27.5233 18.3612C27.5218 18.3596 27.52 18.3571 27.5186 18.3539C27.518 18.3523 27.5174 18.3505 27.517 18.3483C27.5165 18.3461 27.5161 18.3428 27.5161 18.3382H25.1729C25.1729 19.6189 26.1952 20.701 27.5099 20.701V18.3578ZM27.5161 18.3382C27.5161 18.3336 27.5165 18.3303 27.517 18.3281C27.5174 18.3259 27.518 18.3241 27.5186 18.3225C27.52 18.3193 27.5218 18.3168 27.5233 18.3153C27.5247 18.3138 27.5245 18.3146 27.5212 18.316C27.5195 18.3168 27.5173 18.3175 27.5149 18.318C27.5124 18.3185 27.5106 18.3186 27.5099 18.3186V15.9754C26.1952 15.9754 25.1729 17.0576 25.1729 18.3382H27.5161ZM27.5099 18.3186C27.5092 18.3186 27.5074 18.3185 27.5049 18.318C27.5025 18.3175 27.5004 18.3168 27.4986 18.316C27.4953 18.3146 27.4951 18.3138 27.4965 18.3153C27.498 18.3168 27.4998 18.3193 27.5012 18.3225C27.5018 18.3241 27.5024 18.3259 27.5029 18.3281C27.5033 18.3303 27.5037 18.3336 27.5037 18.3382H29.8469C29.8469 17.0576 28.8246 15.9754 27.5099 15.9754V18.3186Z" fill="#54428E" mask="url(#path-5-inside-2)"/>
<path d="M33.7152 16.2206C33.7152 21.3528 29.5482 25.5179 24.4021 25.5179C19.256 25.5179 15.089 21.3528 15.089 16.2206C15.089 11.0884 19.256 6.92324 24.4021 6.92324C29.5482 6.92324 33.7152 11.0884 33.7152 16.2206Z" stroke="#54428E" stroke-width="3.90533"/>
<line x1="21.9407" y1="18.1478" x2="26.3434" y2="18.1478" stroke="#54428E" stroke-width="0.976331"/>
<path d="M28.6753 18.4069C29.3876 18.4069 30.6109 18.4069 31.0641 18.4069C31.8213 16.8364 31.7503 16.3973 31.0641 14.9632C30.6596 14.9632 30.0511 14.9632 29.6465 14.9632C26.8915 8.2064 20.9158 11.8529 21.4885 15.1617C21.5364 15.4382 19.9994 14.6348 18.7692 15.8897C17.539 17.1446 19.0214 18.4069 19.0214 18.4069C19.0214 18.4069 20.2036 18.4069 20.9158 18.4069" stroke="#54428E" stroke-width="0.781065"/>
<defs>
<filter id="filter0_d" x="0.82834" y="22.9865" width="48.1243" height="27.3093" filterUnits="userSpaceOnUse" color-interpolation-filters="sRGB">
<feFlood flood-opacity="0" result="BackgroundImageFix"/>
<feColorMatrix in="SourceAlpha" type="matrix" values="0 0 0 0 0 0 0 0 0 0 0 0 0 0 0 0 0 0 127 0"/>
<feOffset dx="0.390533" dy="2.73373"/>
<feGaussianBlur stdDeviation="0.390533"/>
<feColorMatrix type="matrix" values="0 0 0 0 0 0 0 0 0 0 0 0 0 0 0 0 0 0 0.38 0"/>
<feBlend mode="normal" in2="BackgroundImageFix" result="effect1_dropShadow"/>
<feBlend mode="normal" in="SourceGraphic" in2="effect1_dropShadow" result="shape"/>
</filter>
</defs>
</svg>
