<svg width="170" height="51" viewBox="0 0 170 51" fill="none" xmlns="http://www.w3.org/2000/svg">
<g filter="url(#filter0_d)">
<rect x="4" width="154" height="43" rx="10" fill="white"/>
</g>
<path d="M43 23H37V29H35V23H29V21H35V15H37V21H43V23Z" fill="black"/>
<path d="M64.35 15.155V26H63.315C63.155 26 63.02 25.975 62.91 25.925C62.805 25.87 62.7025 25.78 62.6025 25.655L56.94 18.425C56.97 18.755 56.985 19.06 56.985 19.34V26H55.2075V15.155H56.265C56.35 15.155 56.4225 15.16 56.4825 15.17C56.5475 15.175 56.6025 15.19 56.6475 15.215C56.6975 15.235 56.745 15.2675 56.79 15.3125C56.835 15.3525 56.885 15.4075 56.94 15.4775L62.625 22.7375C62.61 22.5625 62.5975 22.39 62.5875 22.22C62.5775 22.05 62.5725 21.8925 62.5725 21.7475V15.155H64.35ZM71.1957 21.2675C71.1957 21.0275 71.1607 20.8025 71.0907 20.5925C71.0257 20.3775 70.9257 20.19 70.7907 20.03C70.6557 19.87 70.4832 19.745 70.2732 19.655C70.0682 19.56 69.8282 19.5125 69.5532 19.5125C69.0182 19.5125 68.5957 19.665 68.2857 19.97C67.9807 20.275 67.7857 20.7075 67.7007 21.2675H71.1957ZM67.6632 22.385C67.6932 22.78 67.7632 23.1225 67.8732 23.4125C67.9832 23.6975 68.1282 23.935 68.3082 24.125C68.4882 24.31 68.7007 24.45 68.9457 24.545C69.1957 24.635 69.4707 24.68 69.7707 24.68C70.0707 24.68 70.3282 24.645 70.5432 24.575C70.7632 24.505 70.9532 24.4275 71.1132 24.3425C71.2782 24.2575 71.4207 24.18 71.5407 24.11C71.6657 24.04 71.7857 24.005 71.9007 24.005C72.0557 24.005 72.1707 24.0625 72.2457 24.1775L72.7782 24.8525C72.5732 25.0925 72.3432 25.295 72.0882 25.46C71.8332 25.62 71.5657 25.75 71.2857 25.85C71.0107 25.945 70.7282 26.0125 70.4382 26.0525C70.1532 26.0925 69.8757 26.1125 69.6057 26.1125C69.0707 26.1125 68.5732 26.025 68.1132 25.85C67.6532 25.67 67.2532 25.4075 66.9132 25.0625C66.5732 24.7125 66.3057 24.2825 66.1107 23.7725C65.9157 23.2575 65.8182 22.6625 65.8182 21.9875C65.8182 21.4625 65.9032 20.97 66.0732 20.51C66.2432 20.045 66.4857 19.6425 66.8007 19.3025C67.1207 18.9575 67.5082 18.685 67.9632 18.485C68.4232 18.285 68.9407 18.185 69.5157 18.185C70.0007 18.185 70.4482 18.2625 70.8582 18.4175C71.2682 18.5725 71.6207 18.8 71.9157 19.1C72.2107 19.395 72.4407 19.76 72.6057 20.195C72.7757 20.625 72.8607 21.1175 72.8607 21.6725C72.8607 21.9525 72.8307 22.1425 72.7707 22.2425C72.7107 22.3375 72.5957 22.385 72.4257 22.385H67.6632ZM85.1359 18.305L82.6909 26H81.2059C81.0359 26 80.9184 25.89 80.8534 25.67L79.4734 21.2225C79.4284 21.0725 79.3859 20.925 79.3459 20.78C79.3109 20.63 79.2809 20.48 79.2559 20.33C79.2259 20.48 79.1909 20.6325 79.1509 20.7875C79.1159 20.9375 79.0759 21.0875 79.0309 21.2375L77.6284 25.67C77.5684 25.89 77.4359 26 77.2309 26H75.8059L73.3684 18.305H74.8459C74.9809 18.305 75.0959 18.3375 75.1909 18.4025C75.2859 18.4675 75.3484 18.55 75.3784 18.65L76.4809 22.76C76.5359 22.985 76.5834 23.205 76.6234 23.42C76.6684 23.635 76.7059 23.85 76.7359 24.065C76.7909 23.85 76.8484 23.635 76.9084 23.42C76.9734 23.205 77.0409 22.985 77.1109 22.76L78.3859 18.635C78.4159 18.535 78.4734 18.4525 78.5584 18.3875C78.6484 18.3225 78.7559 18.29 78.8809 18.29H79.6984C79.8284 18.29 79.9384 18.3225 80.0284 18.3875C80.1234 18.4525 80.1859 18.535 80.2159 18.635L81.4534 22.76C81.5184 22.985 81.5784 23.2075 81.6334 23.4275C81.6934 23.6425 81.7509 23.8575 81.8059 24.0725C81.8709 23.6475 81.9634 23.21 82.0834 22.76L83.2159 18.65C83.2509 18.55 83.3134 18.4675 83.4034 18.4025C83.4934 18.3375 83.6009 18.305 83.7259 18.305H85.1359ZM95.0537 21.905L93.7337 18.2975C93.6687 18.1375 93.6012 17.9475 93.5312 17.7275C93.4612 17.5075 93.3912 17.27 93.3212 17.015C93.2562 17.27 93.1887 17.51 93.1187 17.735C93.0487 17.955 92.9812 18.1475 92.9162 18.3125L91.6037 21.905H95.0537ZM98.6162 26H97.0562C96.8812 26 96.7387 25.9575 96.6287 25.8725C96.5187 25.7825 96.4362 25.6725 96.3812 25.5425L95.5712 23.33H91.0787L90.2687 25.5425C90.2287 25.6575 90.1512 25.7625 90.0362 25.8575C89.9212 25.9525 89.7787 26 89.6087 26H88.0337L92.3012 15.155H94.3562L98.6162 26ZM104.115 20.27C103.905 20.015 103.675 19.835 103.425 19.73C103.18 19.625 102.915 19.5725 102.63 19.5725C102.35 19.5725 102.098 19.625 101.873 19.73C101.648 19.835 101.455 19.995 101.295 20.21C101.135 20.42 101.013 20.69 100.928 21.02C100.843 21.345 100.8 21.73 100.8 22.175C100.8 22.625 100.835 23.0075 100.905 23.3225C100.98 23.6325 101.085 23.8875 101.22 24.0875C101.355 24.2825 101.52 24.425 101.715 24.515C101.91 24.6 102.128 24.6425 102.368 24.6425C102.753 24.6425 103.08 24.5625 103.35 24.4025C103.62 24.2425 103.875 24.015 104.115 23.72V20.27ZM105.968 14.855V26H104.835C104.59 26 104.435 25.8875 104.37 25.6625L104.213 24.92C103.903 25.275 103.545 25.5625 103.14 25.7825C102.74 26.0025 102.273 26.1125 101.738 26.1125C101.318 26.1125 100.933 26.025 100.583 25.85C100.233 25.675 99.9301 25.4225 99.6751 25.0925C99.4251 24.7575 99.2301 24.345 99.0901 23.855C98.9551 23.365 98.8876 22.805 98.8876 22.175C98.8876 21.605 98.9651 21.075 99.1201 20.585C99.2751 20.095 99.4976 19.67 99.7876 19.31C100.078 18.95 100.425 18.67 100.83 18.47C101.235 18.265 101.69 18.1625 102.195 18.1625C102.625 18.1625 102.993 18.23 103.298 18.365C103.603 18.5 103.875 18.6825 104.115 18.9125V14.855H105.968ZM107.796 26V18.305H108.928C109.168 18.305 109.326 18.4175 109.401 18.6425L109.521 19.2125C109.656 19.0625 109.796 18.925 109.941 18.8C110.091 18.675 110.248 18.5675 110.413 18.4775C110.583 18.3875 110.763 18.3175 110.953 18.2675C111.148 18.2125 111.361 18.185 111.591 18.185C112.076 18.185 112.473 18.3175 112.783 18.5825C113.098 18.8425 113.333 19.19 113.488 19.625C113.608 19.37 113.758 19.1525 113.938 18.9725C114.118 18.7875 114.316 18.6375 114.531 18.5225C114.746 18.4075 114.973 18.3225 115.213 18.2675C115.458 18.2125 115.703 18.185 115.948 18.185C116.373 18.185 116.751 18.25 117.081 18.38C117.411 18.51 117.688 18.7 117.913 18.95C118.138 19.2 118.308 19.505 118.423 19.865C118.543 20.225 118.603 20.6375 118.603 21.1025V26H116.751V21.1025C116.751 20.6125 116.643 20.245 116.428 20C116.213 19.75 115.898 19.625 115.483 19.625C115.293 19.625 115.116 19.6575 114.951 19.7225C114.791 19.7875 114.648 19.8825 114.523 20.0075C114.403 20.1275 114.308 20.28 114.238 20.465C114.168 20.65 114.133 20.8625 114.133 21.1025V26H112.273V21.1025C112.273 20.5875 112.168 20.2125 111.958 19.9775C111.753 19.7425 111.451 19.625 111.051 19.625C110.781 19.625 110.528 19.6925 110.293 19.8275C110.063 19.9575 109.848 20.1375 109.648 20.3675V26H107.796ZM122.284 18.305V26H120.424V18.305H122.284ZM122.539 16.0625C122.539 16.2225 122.507 16.3725 122.442 16.5125C122.377 16.6525 122.289 16.775 122.179 16.88C122.074 16.985 121.949 17.07 121.804 17.135C121.659 17.195 121.504 17.225 121.339 17.225C121.179 17.225 121.027 17.195 120.882 17.135C120.742 17.07 120.619 16.985 120.514 16.88C120.409 16.775 120.324 16.6525 120.259 16.5125C120.199 16.3725 120.169 16.2225 120.169 16.0625C120.169 15.8975 120.199 15.7425 120.259 15.5975C120.324 15.4525 120.409 15.3275 120.514 15.2225C120.619 15.1175 120.742 15.035 120.882 14.975C121.027 14.91 121.179 14.8775 121.339 14.8775C121.504 14.8775 121.659 14.91 121.804 14.975C121.949 15.035 122.074 15.1175 122.179 15.2225C122.289 15.3275 122.377 15.4525 122.442 15.5975C122.507 15.7425 122.539 15.8975 122.539 16.0625ZM125.905 19.25C126.06 19.095 126.223 18.9525 126.393 18.8225C126.568 18.6875 126.75 18.575 126.94 18.485C127.135 18.39 127.343 18.3175 127.563 18.2675C127.783 18.2125 128.023 18.185 128.283 18.185C128.703 18.185 129.075 18.2575 129.4 18.4025C129.725 18.5425 129.995 18.7425 130.21 19.0025C130.43 19.2575 130.595 19.565 130.705 19.925C130.82 20.28 130.878 20.6725 130.878 21.1025V26H129.025V21.1025C129.025 20.6325 128.918 20.27 128.703 20.015C128.488 19.755 128.16 19.625 127.72 19.625C127.4 19.625 127.1 19.6975 126.82 19.8425C126.54 19.9875 126.275 20.185 126.025 20.435V26H124.173V18.305H125.305C125.545 18.305 125.703 18.4175 125.778 18.6425L125.905 19.25Z" fill="#575758"/>
<defs>
<filter id="filter0_d" x="0" y="0" width="162" height="51" filterUnits="userSpaceOnUse" color-interpolation-filters="sRGB">
<feFlood flood-opacity="0" result="BackgroundImageFix"/>
<feColorMatrix in="SourceAlpha" type="matrix" values="0 0 0 0 0 0 0 0 0 0 0 0 0 0 0 0 0 0 127 0"/>
<feOffset dy="4"/>
<feGaussianBlur stdDeviation="2"/>
<feColorMatrix type="matrix" values="0 0 0 0 0 0 0 0 0 0 0 0 0 0 0 0 0 0 0.25 0"/>
<feBlend mode="normal" in2="BackgroundImageFix" result="effect1_dropShadow"/>
<feBlend mode="normal" in="SourceGraphic" in2="effect1_dropShadow" result="shape"/>
</filter>
</defs>
</svg>
