<svg width="40" height="40" viewBox="0 0 40 40" fill="none" xmlns="http://www.w3.org/2000/svg">
<path d="M15 22.9167C11.1 22.9167 3.33331 24.8667 3.33331 28.75V31.6667H26.6666V28.75C26.6666 24.8667 18.9 22.9167 15 22.9167ZM7.23331 28.3334C8.63331 27.3667 12.0166 26.25 15 26.25C17.9833 26.25 21.3666 27.3667 22.7666 28.3334H7.23331ZM15 20C18.2166 20 20.8333 17.3834 20.8333 14.1667C20.8333 10.95 18.2166 8.33337 15 8.33337C11.7833 8.33337 9.16665 10.95 9.16665 14.1667C9.16665 17.3834 11.7833 20 15 20ZM15 11.6667C16.3833 11.6667 17.5 12.7834 17.5 14.1667C17.5 15.55 16.3833 16.6667 15 16.6667C13.6166 16.6667 12.5 15.55 12.5 14.1667C12.5 12.7834 13.6166 11.6667 15 11.6667ZM26.7333 23.0167C28.6666 24.4167 30 26.2834 30 28.75V31.6667H36.6666V28.75C36.6666 25.3834 30.8333 23.4667 26.7333 23.0167ZM25 20C28.2166 20 30.8333 17.3834 30.8333 14.1667C30.8333 10.95 28.2166 8.33337 25 8.33337C24.1 8.33337 23.2666 8.55004 22.5 8.91671C23.55 10.4 24.1666 12.2167 24.1666 14.1667C24.1666 16.1167 23.55 17.9334 22.5 19.4167C23.2666 19.7834 24.1 20 25 20Z" fill="#575758"/>
</svg>
