<svg width="40" height="40" viewBox="0 0 40 40" fill="none" xmlns="http://www.w3.org/2000/svg">
<path d="M20 9.99996C21.8334 9.99996 23.3334 11.5 23.3334 13.3333C23.3334 15.1666 21.8334 16.6666 20 16.6666C18.1667 16.6666 16.6667 15.1666 16.6667 13.3333C16.6667 11.5 18.1667 9.99996 20 9.99996ZM20 25C24.5 25 29.6667 27.15 30 28.3333V30H10V28.35C10.3334 27.15 15.5 25 20 25ZM20 6.66663C16.3167 6.66663 13.3334 9.64996 13.3334 13.3333C13.3334 17.0166 16.3167 20 20 20C23.6834 20 26.6667 17.0166 26.6667 13.3333C26.6667 9.64996 23.6834 6.66663 20 6.66663ZM20 21.6666C15.55 21.6666 6.66669 23.9 6.66669 28.3333V33.3333H33.3334V28.3333C33.3334 23.9 24.45 21.6666 20 21.6666Z" fill="#575758"/>
</svg>
