<svg width="35" height="35" viewBox="0 0 35 35" fill="none" xmlns="http://www.w3.org/2000/svg">
<rect width="35" height="35" fill="#E1FDF3"/>
<path d="M27.5917 7.30623C27.3 6.44581 26.4833 5.83331 25.5208 5.83331H9.47917C8.51667 5.83331 7.71458 6.44581 7.40833 7.30623L4.375 16.0416V27.7083C4.375 28.5104 5.03125 29.1666 5.83333 29.1666H7.29167C8.09375 29.1666 8.75 28.5104 8.75 27.7083V26.25H26.25V27.7083C26.25 28.5104 26.9062 29.1666 27.7083 29.1666H29.1667C29.9688 29.1666 30.625 28.5104 30.625 27.7083V16.0416L27.5917 7.30623ZM9.98958 8.74998H24.9958L26.5125 13.125H8.47292L9.98958 8.74998ZM27.7083 23.3333H7.29167V16.5375L7.46667 16.0416H27.5479L27.7083 16.5375V23.3333Z" fill="#4E4CA7"/>
<path d="M10.9375 21.875C12.1456 21.875 13.125 20.8956 13.125 19.6875C13.125 18.4794 12.1456 17.5 10.9375 17.5C9.72938 17.5 8.75 18.4794 8.75 19.6875C8.75 20.8956 9.72938 21.875 10.9375 21.875Z" fill="#4E4CA7"/>
<path d="M24.0625 21.875C25.2706 21.875 26.25 20.8956 26.25 19.6875C26.25 18.4794 25.2706 17.5 24.0625 17.5C22.8544 17.5 21.875 18.4794 21.875 19.6875C21.875 20.8956 22.8544 21.875 24.0625 21.875Z" fill="#4E4CA7"/>
</svg>
