<svg width="40" height="40" viewBox="0 0 40 40" fill="none" xmlns="http://www.w3.org/2000/svg">
<rect width="40" height="40" rx="6" fill="#DAD3F2"/>
<path d="M15 22.9166C11.1 22.9166 3.33337 24.8666 3.33337 28.75V31.6666H26.6667V28.75C26.6667 24.8666 18.9 22.9166 15 22.9166ZM7.23337 28.3333C8.63337 27.3666 12.0167 26.25 15 26.25C17.9834 26.25 21.3667 27.3666 22.7667 28.3333H7.23337ZM15 20C18.2167 20 20.8334 17.3833 20.8334 14.1666C20.8334 10.95 18.2167 8.33331 15 8.33331C11.7834 8.33331 9.16671 10.95 9.16671 14.1666C9.16671 17.3833 11.7834 20 15 20ZM15 11.6666C16.3834 11.6666 17.5 12.7833 17.5 14.1666C17.5 15.55 16.3834 16.6666 15 16.6666C13.6167 16.6666 12.5 15.55 12.5 14.1666C12.5 12.7833 13.6167 11.6666 15 11.6666ZM26.7334 23.0166C28.6667 24.4166 30 26.2833 30 28.75V31.6666H36.6667V28.75C36.6667 25.3833 30.8334 23.4666 26.7334 23.0166ZM25 20C28.2167 20 30.8334 17.3833 30.8334 14.1666C30.8334 10.95 28.2167 8.33331 25 8.33331C24.1 8.33331 23.2667 8.54998 22.5 8.91665C23.55 10.4 24.1667 12.2166 24.1667 14.1666C24.1667 16.1166 23.55 17.9333 22.5 19.4166C23.2667 19.7833 24.1 20 25 20Z" fill="#54428E"/>
</svg>
